<svg xmlns="http://www.w3.org/2000/svg">
<symbol viewBox="0 0 88 32" fill="none" id='logo'>
<path d="M10.6011 0.456055H16.1137L26.3906 31.1461H20.7993L18.2006 23.4952H8.43549L5.87609 31.1461H0.28479L10.6011 0.456055ZM17.2162 19.3023L13.3574 6.63729L9.34112 19.3023H17.2162Z" fill="white"/>
<path d="M32.3708 0.456055L39.3008 11.7811L46.1915 0.456055H52.0978L42.4115 16.0172L51.7828 31.1461H45.8765L39.3008 20.2533L32.6858 31.1461H26.7401L36.1114 16.0172L26.4251 0.456055H32.3708Z" fill="white"/>
<path d="M54.9125 31.1461V0.456055H60.3463V31.1461H54.9125Z" fill="#EC7979"/>
<path d="M87.0874 5.68633H78.1492V31.1461H72.7548V5.68633H63.8166V0.456055H87.0874V5.68633Z" fill="#EC7979"/>
</symbol>
<symbol viewBox="0 0 70 70" fill="none" id='face'>
<path d="M26.827 62.7083H38.4937V39.3458H49.0054L50.1604 27.7375H38.4937V21.875C38.4937 21.1014 38.801 20.3595 39.348 19.8126C39.8949 19.2656 40.6368 18.9583 41.4104 18.9583H50.1604V7.29163H41.4104C37.5426 7.29163 33.8333 8.82808 31.0984 11.563C28.3635 14.2979 26.827 18.0072 26.827 21.875V27.7375H20.9937L19.8387 39.3458H26.827V62.7083Z" fill="#CCCCCC"/>
</symbol>
<symbol viewBox="0 0 70 70" fill="none" id='twitter'>
<path d="M57.2629 23.3247C57.3008 23.8351 57.3008 24.3426 57.3008 24.8501C57.3008 40.3813 45.4796 58.278 23.8758 58.278C17.22 58.278 11.0366 56.3501 5.83331 53.0018C6.77831 53.1097 7.68831 53.1476 8.67123 53.1476C13.9591 53.1604 19.0973 51.3922 23.2575 48.128C20.8058 48.0836 18.4292 47.2748 16.4594 45.8143C14.4897 44.3539 13.0252 42.3148 12.2704 39.9818C12.9966 40.0897 13.7258 40.1626 14.49 40.1626C15.5429 40.1626 16.6016 40.0168 17.5846 39.763C14.9239 39.2258 12.5314 37.7836 10.8139 35.6817C9.09637 33.5797 8.15992 30.9478 8.16373 28.2334V28.0876C9.72998 28.9597 11.5471 29.5051 13.4721 29.578C11.8594 28.5064 10.5371 27.0522 9.62305 25.3453C8.70903 23.6384 8.23173 21.7317 8.23373 19.7955C8.23373 17.6138 8.81415 15.613 9.83206 13.8688C12.7841 17.5001 16.466 20.4709 20.6393 22.5887C24.8126 24.7065 29.3841 25.924 34.0579 26.1626C33.8771 25.2876 33.7662 24.3805 33.7662 23.4705C33.7655 21.9275 34.0688 20.3994 34.659 18.9737C35.2491 17.548 36.1144 16.2526 37.2055 15.1615C38.2966 14.0704 39.592 13.205 41.0178 12.6149C42.4435 12.0248 43.9715 11.7214 45.5146 11.7222C48.8979 11.7222 51.9516 13.1397 54.0983 15.4322C56.7285 14.9236 59.2507 13.9634 61.5533 12.5943C60.6766 15.3091 58.8401 17.6112 56.3879 19.0693C58.7206 18.8032 61.0004 18.1897 63.1516 17.2493C61.5449 19.5916 59.554 21.6457 57.2629 23.3247Z" fill="#CCCCCC"/>
</symbol>
<symbol viewBox="0 0 70 70" fill="none" id='linkidin'>
<path d="M58.3333 8.75H11.6667C10.8931 8.75 10.1513 9.05729 9.60427 9.60427C9.05729 10.1513 8.75 10.8931 8.75 11.6667V58.3333C8.75 59.1069 9.05729 59.8488 9.60427 60.3957C10.1513 60.9427 10.8931 61.25 11.6667 61.25H58.3333C59.1069 61.25 59.8488 60.9427 60.3957 60.3957C60.9427 59.8488 61.25 59.1069 61.25 58.3333V11.6667C61.25 10.8931 60.9427 10.1513 60.3957 9.60427C59.8488 9.05729 59.1069 8.75 58.3333 8.75ZM24.3221 53.4829H16.5287V28.4287H24.3221V53.4829ZM20.4254 25.0075C19.228 25.0075 18.0796 24.5318 17.2328 23.6851C16.3861 22.8384 15.9104 21.69 15.9104 20.4925C15.9104 19.295 16.3861 18.1466 17.2328 17.2999C18.0796 16.4532 19.228 15.9775 20.4254 15.9775C21.6229 15.9775 22.7713 16.4532 23.618 17.2999C24.4647 18.1466 24.9404 19.295 24.9404 20.4925C24.9404 21.69 24.4647 22.8384 23.618 23.6851C22.7713 24.5318 21.6229 25.0075 20.4254 25.0075ZM53.4858 53.4829H45.7012V41.3C45.7012 38.395 45.6488 34.6588 41.6529 34.6588C37.5988 34.6588 36.9833 37.8263 36.9833 41.0958V53.4858H29.2046V28.4317H36.6713V31.8558H36.7792C37.8146 29.8871 40.3579 27.8104 44.1408 27.8104C52.0275 27.8104 53.4829 32.9963 53.4829 39.7454V53.4829H53.4858Z" fill="#CCCCCC"/>
</symbol>
<symbol viewBox="0 0 70 70" fill="none" id='pinterest'>
<path d="M26.3667 62.8251C29.1667 63.6709 31.9958 64.1667 35 64.1667C42.7355 64.1667 50.1542 61.0938 55.624 55.624C61.0938 50.1542 64.1667 42.7355 64.1667 35C64.1667 31.1698 63.4123 27.3771 61.9465 23.8384C60.4807 20.2998 58.3323 17.0845 55.624 14.3761C52.9156 11.6677 49.7003 9.51932 46.1616 8.05355C42.623 6.58779 38.8302 5.83337 35 5.83337C31.1698 5.83337 27.3771 6.58779 23.8384 8.05355C20.2997 9.51932 17.0844 11.6677 14.3761 14.3761C8.90625 19.8459 5.83334 27.2646 5.83334 35C5.83334 47.3959 13.6208 58.0417 24.6167 62.2417C24.3542 59.9667 24.0917 56.2042 24.6167 53.6084L27.9708 39.2C27.9708 39.2 27.125 37.5084 27.125 34.825C27.125 30.8 29.6333 27.7959 32.4917 27.7959C35 27.7959 36.1667 29.6334 36.1667 31.9959C36.1667 34.5042 34.5042 38.0917 33.6583 41.5334C33.1625 44.3917 35.175 46.9 38.0917 46.9C43.2833 46.9 47.3083 41.3584 47.3083 33.5417C47.3083 26.5417 42.2917 21.7584 35.0875 21.7584C26.8625 21.7584 22.0208 27.8834 22.0208 34.3292C22.0208 36.8375 22.8375 39.375 24.1792 41.0375C24.4417 41.2125 24.4417 41.4459 24.3542 41.8834L23.5083 45.0625C23.5083 45.5584 23.1875 45.7334 22.6917 45.3834C18.9583 43.75 16.8 38.4417 16.8 34.1542C16.8 24.9375 23.3333 16.5667 35.9333 16.5667C45.9667 16.5667 53.7834 23.7709 53.7834 33.3375C53.7834 43.3709 47.5709 51.4209 38.675 51.4209C35.8458 51.4209 33.075 49.9042 32.0833 48.125L30.1292 55.0375C29.4583 57.5459 27.6208 60.9 26.3667 62.9125V62.8251Z" fill="#CCCCCC"/>
</symbol>
<symbol viewBox="0 0 70 70" fill="none" id='insta'>
<path d="M61.0956 24.2228C61.0661 22.0138 60.6526 19.8267 59.8735 17.7595C59.1978 16.0157 58.1659 14.4321 56.8436 13.1098C55.5212 11.7875 53.9376 10.7555 52.1939 10.0799C50.1532 9.31383 47.9973 8.89962 45.8181 8.85487C43.0122 8.72946 42.1226 8.69446 35.0001 8.69446C27.8776 8.69446 26.9647 8.69446 24.1793 8.85487C22.001 8.89995 19.8462 9.31416 17.8064 10.0799C16.0624 10.7551 14.4785 11.7868 13.1562 13.1092C11.8338 14.4316 10.802 16.0155 10.1268 17.7595C9.35923 19.7986 8.94592 21.9539 8.90473 24.1324C8.77931 26.9411 8.74139 27.8307 8.74139 34.9532C8.74139 42.0757 8.74139 42.9857 8.90473 45.774C8.94848 47.9557 9.35973 50.1082 10.1268 52.1528C10.8031 53.8963 11.8357 55.4795 13.1585 56.8013C14.4813 58.1231 16.0653 59.1545 17.8093 59.8295C19.8435 60.6263 21.9987 61.0701 24.1822 61.142C26.991 61.2674 27.8806 61.3053 35.0031 61.3053C42.1256 61.3053 43.0385 61.3053 45.8239 61.142C48.0031 61.099 50.1591 60.6858 52.1997 59.9199C53.943 59.2434 55.5262 58.2112 56.8484 56.889C58.1707 55.5668 59.2029 53.9836 59.8793 52.2403C60.6464 50.1986 61.0576 48.0461 61.1014 45.8615C61.2268 43.0557 61.2647 42.1661 61.2647 35.0407C61.2589 27.9182 61.2589 27.014 61.0956 24.2228ZM34.9826 48.4224C27.5335 48.4224 21.4989 42.3878 21.4989 34.9386C21.4989 27.4895 27.5335 21.4549 34.9826 21.4549C38.5588 21.4549 41.9884 22.8755 44.5171 25.4042C47.0458 27.9329 48.4664 31.3625 48.4664 34.9386C48.4664 38.5147 47.0458 41.9444 44.5171 44.4731C41.9884 47.0018 38.5588 48.4224 34.9826 48.4224ZM49.0031 24.1003C48.5901 24.1007 48.181 24.0196 47.7994 23.8617C47.4177 23.7039 47.071 23.4723 46.7789 23.1802C46.4869 22.8882 46.2553 22.5414 46.0974 22.1598C45.9396 21.7782 45.8585 21.3691 45.8589 20.9561C45.8589 20.5434 45.9402 20.1348 46.0981 19.7535C46.2561 19.3722 46.4875 19.0257 46.7794 18.7339C47.0712 18.4421 47.4176 18.2106 47.7989 18.0526C48.1802 17.8947 48.5889 17.8134 49.0016 17.8134C49.4143 17.8134 49.823 17.8947 50.2043 18.0526C50.5856 18.2106 50.932 18.4421 51.2238 18.7339C51.5157 19.0257 51.7472 19.3722 51.9051 19.7535C52.063 20.1348 52.1443 20.5434 52.1443 20.9561C52.1443 22.6945 50.7385 24.1003 49.0031 24.1003Z" fill="#CCCCCC"/>
<path d="M34.9829 43.6974C39.8202 43.6974 43.7416 39.776 43.7416 34.9387C43.7416 30.1014 39.8202 26.1799 34.9829 26.1799C30.1456 26.1799 26.2242 30.1014 26.2242 34.9387C26.2242 39.776 30.1456 43.6974 34.9829 43.6974Z" fill="#CCCCCC"/>
</symbol>
<symbol viewBox="0 0 70 70" fill="none" id='git'>
<path fill-rule="evenodd" clip-rule="evenodd" d="M35.0754 5.83337C19.0075 5.83337 5.98454 18.8563 5.98454 34.9242C5.98454 47.775 14.3175 58.6805 25.8791 62.5305C27.3345 62.793 27.8595 61.8975 27.8595 61.1275C27.8595 60.4363 27.8362 58.6046 27.8275 56.1809C19.7337 57.9367 18.0245 52.2784 18.0245 52.2784C16.7062 48.9184 14.7958 48.023 14.7958 48.023C12.1562 46.2175 14.997 46.2584 14.997 46.2584C17.9195 46.4625 19.4508 49.2567 19.4508 49.2567C22.0466 53.7017 26.2641 52.4184 27.915 51.6746C28.1804 49.7934 28.9387 48.51 29.767 47.7838C23.3095 47.0517 16.5195 44.555 16.5195 33.4046C16.5195 30.2342 17.6541 27.6325 19.5062 25.6025C19.2116 24.8646 18.2054 21.9042 19.795 17.9025C19.795 17.9025 22.2362 17.118 27.7925 20.8805C30.1654 20.2349 32.6132 19.9054 35.0725 19.9005C37.5317 19.9044 39.9797 20.234 42.3525 20.8805C47.9116 17.115 50.35 17.9025 50.35 17.9025C51.9395 21.9042 50.942 24.8646 50.6387 25.6025C52.5054 27.6325 53.6254 30.2313 53.6254 33.4046C53.6254 44.5842 46.8295 47.04 40.3487 47.7605C41.3841 48.6588 42.3175 50.4321 42.3175 53.1446C42.3175 57.0355 42.2825 60.1738 42.2825 61.1275C42.2825 61.9063 42.8016 62.8105 44.2862 62.5246C55.842 58.6688 64.1662 47.7721 64.1662 34.9242C64.1662 18.8563 51.1433 5.83337 35.0754 5.83337Z" fill="#CCCCCC"/>
</symbol>
<symbol viewBox="0 0 70 70" fill="none" id='rss'>
<path d="M18.025 58.3334C21.5366 58.3334 24.3833 55.4866 24.3833 51.975C24.3833 48.4634 21.5366 45.6167 18.025 45.6167C14.5134 45.6167 11.6667 48.4634 11.6667 51.975C11.6667 55.4866 14.5134 58.3334 18.025 58.3334Z" fill="#CCCCCC"/>
<path d="M11.6667 12.9498V21.204C32.1708 21.204 48.7958 37.829 48.7958 58.3332H57.05C57.05 33.279 36.7208 12.9498 11.6667 12.9498ZM11.6667 29.4582V37.7123C23.0417 37.7123 32.2875 46.9582 32.2875 58.3332H40.5417C40.5417 42.379 27.6208 29.4582 11.6667 29.4582Z" fill="#CCCCCC"/>
</symbol>
<symbol viewBox="0 0 92 92" fill="none" id='lamp'>
<mask id="path-1-inside-1_7266_343" fill="white">
<path d="M33.1741 58.8259C30.6382 56.2893 28.9113 53.0578 28.2119 49.5398C27.5125 46.0219 27.872 42.3755 29.2448 39.0619C30.6176 35.7482 32.9422 32.916 35.9246 30.9233C38.9069 28.9307 42.4132 27.8672 46 27.8672C49.5868 27.8672 53.0931 28.9307 56.0754 30.9233C59.0578 32.916 61.3824 35.7482 62.7552 39.0619C64.128 42.3755 64.4875 46.0219 63.7881 49.5398C63.0887 53.0578 61.3618 56.2893 58.8259 58.8259L56.8382 60.81C55.7018 61.9466 54.8004 63.2959 54.1855 64.7809C53.5706 66.2658 53.2543 67.8574 53.2545 69.4646V71.3907C53.2545 73.3147 52.4902 75.1599 51.1297 76.5204C49.7692 77.8808 47.924 78.6452 46 78.6452C44.076 78.6452 42.2308 77.8808 40.8703 76.5204C39.5098 75.1599 38.7455 73.3147 38.7455 71.3907V69.4646C38.7455 66.2182 37.4542 63.1024 35.1618 60.81L33.1741 58.8259Z"/>
<path d="M92 46C92 71.4051 71.4051 92 46 92C20.5949 92 0 71.4051 0 46C0 20.5949 20.5949 0 46 0C71.4051 0 92 20.5949 92 46Z"/>
</mask>
<path d="M37.5231 63.6362C37.247 63.6362 37.0231 63.8601 37.0231 64.1362C37.0231 64.4123 37.247 64.6362 37.5231 64.6362V63.6362ZM54.4732 64.6362C54.7494 64.6362 54.9732 64.4123 54.9732 64.1362C54.9732 63.8601 54.7494 63.6362 54.4732 63.6362V64.6362ZM46.5 13.3548C46.5 13.0787 46.2761 12.8548 46 12.8548C45.7239 12.8548 45.5 13.0787 45.5 13.3548H46.5ZM45.5 16.9821C45.5 17.2582 45.7239 17.4821 46 17.4821C46.2761 17.4821 46.5 17.2582 46.5 16.9821H45.5ZM69.4373 23.2698C69.6326 23.0745 69.6326 22.758 69.4373 22.5627C69.242 22.3674 68.9255 22.3674 68.7302 22.5627L69.4373 23.2698ZM66.1657 25.1271C65.9705 25.3224 65.9705 25.639 66.1657 25.8343C66.361 26.0295 66.6776 26.0295 66.8728 25.8343L66.1657 25.1271ZM78.6452 46.5C78.9213 46.5 79.1452 46.2761 79.1452 46C79.1452 45.7239 78.9213 45.5 78.6452 45.5V46.5ZM75.0179 45.5C74.7418 45.5 74.5179 45.7239 74.5179 46C74.5179 46.2761 74.7418 46.5 75.0179 46.5V45.5ZM16.9821 46.5C17.2582 46.5 17.4821 46.2761 17.4821 46C17.4821 45.7239 17.2582 45.5 16.9821 45.5V46.5ZM13.3548 45.5C13.0787 45.5 12.8548 45.7239 12.8548 46C12.8548 46.2761 13.0787 46.5 13.3548 46.5V45.5ZM25.1271 25.8343C25.3224 26.0295 25.639 26.0295 25.8343 25.8343C26.0295 25.639 26.0295 25.3224 25.8343 25.1271L25.1271 25.8343ZM23.2698 22.5627C23.0745 22.3674 22.758 22.3674 22.5627 22.5627C22.3674 22.758 22.3674 23.0745 22.5627 23.2698L23.2698 22.5627ZM37.5231 64.6362H54.4732V63.6362H37.5231V64.6362ZM45.5 13.3548V16.9821H46.5V13.3548H45.5ZM68.7302 22.5627L66.1657 25.1271L66.8728 25.8343L69.4373 23.2698L68.7302 22.5627ZM78.6452 45.5H75.0179V46.5H78.6452V45.5ZM16.9821 45.5H13.3548V46.5H16.9821V45.5ZM25.8343 25.1271L23.2698 22.5627L22.5627 23.2698L25.1271 25.8343L25.8343 25.1271ZM33.1741 58.8259L32.4669 59.5329L32.4676 59.5337L33.1741 58.8259ZM58.8259 58.8259L59.5324 59.5337L59.5331 59.5329L58.8259 58.8259ZM56.8382 60.81L56.1317 60.1023L56.131 60.103L56.8382 60.81ZM53.2545 69.4646L54.2545 69.4646L54.2545 69.4645L53.2545 69.4646ZM35.1618 60.81L35.8689 60.1029L35.8683 60.1023L35.1618 60.81ZM33.8813 58.1189C31.4852 55.7222 29.8536 52.6688 29.1927 49.3448L27.2311 49.7348C27.9691 53.4467 29.7911 56.8565 32.4669 59.5329L33.8813 58.1189ZM29.1927 49.3448C28.5319 46.0209 28.8715 42.5756 30.1686 39.4446L28.3209 38.6791C26.8724 42.1755 26.4932 46.0229 27.2311 49.7348L29.1927 49.3448ZM30.1686 39.4446C31.4658 36.3136 33.6622 33.6376 36.4801 31.7548L35.369 30.0919C32.2222 32.1944 29.7695 35.1827 28.3209 38.6791L30.1686 39.4446ZM36.4801 31.7548C39.298 29.8721 42.611 28.8672 46 28.8672V26.8672C42.2154 26.8672 38.5158 27.9894 35.369 30.0919L36.4801 31.7548ZM46 28.8672C49.389 28.8672 52.702 29.8721 55.5199 31.7548L56.631 30.0919C53.4842 27.9894 49.7846 26.8672 46 26.8672V28.8672ZM55.5199 31.7548C58.3378 33.6376 60.5342 36.3136 61.8314 39.4446L63.6791 38.6791C62.2305 35.1827 59.7778 32.1944 56.631 30.0919L55.5199 31.7548ZM61.8314 39.4446C63.1285 42.5756 63.4681 46.0209 62.8073 49.3448L64.7689 49.7348C65.5068 46.0229 65.1276 42.1755 63.6791 38.6791L61.8314 39.4446ZM62.8073 49.3448C62.1464 52.6688 60.5148 55.7222 58.1187 58.1189L59.5331 59.5329C62.2089 56.8565 64.0309 53.4467 64.7689 49.7348L62.8073 49.3448ZM58.1195 58.1182L56.1317 60.1023L57.5447 61.5178L59.5324 59.5337L58.1195 58.1182ZM56.131 60.103C54.9018 61.3324 53.9268 62.792 53.2616 64.3983L55.1095 65.1635C55.6741 63.7998 56.5018 62.5608 57.5454 61.5171L56.131 60.103ZM53.2616 64.3983C52.5965 66.0046 52.2543 67.7262 52.2545 69.4647L54.2545 69.4645C54.2543 67.9886 54.5448 66.5271 55.1095 65.1635L53.2616 64.3983ZM52.2545 69.4646V71.3907H54.2545V69.4646H52.2545ZM52.2545 71.3907C52.2545 73.0495 51.5955 74.6403 50.4226 75.8133L51.8368 77.2275C53.3848 75.6795 54.2545 73.5799 54.2545 71.3907H52.2545ZM50.4226 75.8133C49.2496 76.9862 47.6588 77.6452 46 77.6452V79.6452C48.1892 79.6452 50.2888 78.7755 51.8368 77.2275L50.4226 75.8133ZM46 77.6452C44.3412 77.6452 42.7504 76.9862 41.5774 75.8133L40.1632 77.2275C41.7112 78.7755 43.8108 79.6452 46 79.6452V77.6452ZM41.5774 75.8133C40.4045 74.6403 39.7455 73.0495 39.7455 71.3907H37.7455C37.7455 73.5799 38.6152 75.6795 40.1632 77.2275L41.5774 75.8133ZM39.7455 71.3907V69.4646H37.7455V71.3907H39.7455ZM39.7455 69.4646C39.7455 65.9531 38.3489 62.5829 35.8689 60.1029L34.4547 61.5171C36.5595 63.622 37.7455 66.4834 37.7455 69.4646H39.7455ZM35.8683 60.1023L33.8805 58.1182L32.4676 59.5337L34.4553 61.5178L35.8683 60.1023ZM91 46C91 70.8528 70.8528 91 46 91V93C71.9574 93 93 71.9574 93 46H91ZM46 91C21.1472 91 1 70.8528 1 46H-1C-1 71.9574 20.0426 93 46 93V91ZM1 46C1 21.1472 21.1472 1 46 1V-1C20.0426 -1 -1 20.0426 -1 46H1ZM46 1C70.8528 1 91 21.1472 91 46H93C93 20.0426 71.9574 -1 46 -1V1Z" fill="#EC7979" mask="url(#path-1-inside-1_7266_343)"/>
</symbol>
<symbol viewBox="0 0 92 92" fill="none" id='claw'>
<mask id="path-1-inside-1_7258_338" fill="white">
<path d="M71.5733 23C73.543 23 75.432 23.7786 76.8248 25.1645C78.2176 26.5505 79.0001 28.4302 79.0001 30.3902V61.6098C79.0001 63.5698 78.2176 65.4495 76.8248 66.8355C75.432 68.2214 73.543 69 71.5733 69H20.427C19.4517 69 18.4859 68.8088 17.5848 68.4375C16.6838 68.0661 15.865 67.5217 15.1754 66.8355C14.4858 66.1492 13.9387 65.3345 13.5655 64.4379C13.1922 63.5413 13.0001 62.5803 13.0001 61.6098V30.3902C13.0001 28.4302 13.7826 26.5505 15.1754 25.1645C16.5682 23.7786 18.4573 23 20.427 23H71.5733ZM71.5733 27.9268H20.427C19.7704 27.9268 19.1407 28.1863 18.6765 28.6483C18.2122 29.1103 17.9514 29.7369 17.9514 30.3902V61.6098C17.9514 62.9696 19.0604 64.0732 20.427 64.0732H71.5733C72.2298 64.0732 72.8595 63.8137 73.3238 63.3517C73.7881 62.8897 74.0489 62.2631 74.0489 61.6098V30.3902C74.0489 29.7369 73.7881 29.1103 73.3238 28.6483C72.8595 28.1863 72.2298 27.9268 71.5733 27.9268ZM28.679 54.2031H63.3377C63.9649 54.2033 64.5687 54.4404 65.027 54.8665C65.4854 55.2926 65.7641 55.876 65.8068 56.4986C65.8496 57.1213 65.6532 57.737 65.2574 58.2211C64.8615 58.7053 64.2958 59.0219 63.6744 59.107L63.3377 59.13H28.679C28.0518 59.1298 27.448 58.8927 26.9897 58.4666C26.5314 58.0405 26.2527 57.4571 26.2099 56.8345C26.1672 56.2118 26.3636 55.5961 26.7594 55.112C27.1552 54.6278 27.721 54.3112 28.3424 54.2261L28.679 54.2031ZM60.8621 42.7072C61.7375 42.7072 62.5771 43.0533 63.1961 43.6693C63.8152 44.2852 64.1629 45.1207 64.1629 45.9918C64.1629 46.8629 63.8152 47.6983 63.1961 48.3143C62.5771 48.9303 61.7375 49.2763 60.8621 49.2763C59.9867 49.2763 59.1471 48.9303 58.528 48.3143C57.909 47.6983 57.5613 46.8629 57.5613 45.9918C57.5613 45.1207 57.909 44.2852 58.528 43.6693C59.1471 43.0533 59.9867 42.7072 60.8621 42.7072ZM41.0736 42.7072C41.9491 42.7072 42.7887 43.0533 43.4077 43.6693C44.0267 44.2852 44.3745 45.1207 44.3745 45.9918C44.3745 46.8629 44.0267 47.6983 43.4077 48.3143C42.7887 48.9303 41.9491 49.2763 41.0736 49.2763C40.1982 49.2763 39.3586 48.9303 38.7396 48.3143C38.1206 47.6983 37.7728 46.8629 37.7728 45.9918C37.7728 45.1207 38.1206 44.2852 38.7396 43.6693C39.3586 43.0533 40.1982 42.7072 41.0736 42.7072ZM31.1712 42.7072C32.0466 42.7072 32.8862 43.0533 33.5052 43.6693C34.1242 44.2852 34.472 45.1207 34.472 45.9918C34.472 46.8629 34.1242 47.6983 33.5052 48.3143C32.8862 48.9303 32.0466 49.2763 31.1712 49.2763C30.2957 49.2763 29.4562 48.9303 28.8371 48.3143C28.2181 47.6983 27.8703 46.8629 27.8703 45.9918C27.8703 45.1207 28.2181 44.2852 28.8371 43.6693C29.4562 43.0533 30.2957 42.7072 31.1712 42.7072ZM50.9761 42.7072C51.8515 42.7072 52.6911 43.0533 53.3102 43.6693C53.9292 44.2852 54.2769 45.1207 54.2769 45.9918C54.2769 46.8629 53.9292 47.6983 53.3102 48.3143C52.6911 48.9303 51.8515 49.2763 50.9761 49.2763C50.1007 49.2763 49.2611 48.9303 48.6421 48.3143C48.0231 47.6983 47.6753 46.8629 47.6753 45.9918C47.6753 45.1207 48.0231 44.2852 48.6421 43.6693C49.2611 43.0533 50.1007 42.7072 50.9761 42.7072ZM26.2034 32.8536C27.0789 32.8536 27.9184 33.1997 28.5375 33.8156C29.1565 34.4316 29.5042 35.267 29.5042 36.1382C29.5042 37.0093 29.1565 37.8447 28.5375 38.4607C27.9184 39.0767 27.0789 39.4227 26.2034 39.4227C25.328 39.4227 24.4884 39.0767 23.8694 38.4607C23.2504 37.8447 22.9026 37.0093 22.9026 36.1382C22.9026 35.267 23.2504 34.4316 23.8694 33.8156C24.4884 33.1997 25.328 32.8536 26.2034 32.8536ZM36.0894 32.8536C36.9648 32.8536 37.8044 33.1997 38.4234 33.8156C39.0425 34.4316 39.3902 35.267 39.3902 36.1382C39.3902 37.0093 39.0425 37.8447 38.4234 38.4607C37.8044 39.0767 36.9648 39.4227 36.0894 39.4227C35.214 39.4227 34.3744 39.0767 33.7554 38.4607C33.1363 37.8447 32.7886 37.0093 32.7886 36.1382C32.7886 35.267 33.1363 34.4316 33.7554 33.8156C34.3744 33.1997 35.214 32.8536 36.0894 32.8536ZM45.9919 32.8536C46.8673 32.8536 47.7069 33.1997 48.3259 33.8156C48.9449 34.4316 49.2927 35.267 49.2927 36.1382C49.2927 37.0093 48.9449 37.8447 48.3259 38.4607C47.7069 39.0767 46.8673 39.4227 45.9919 39.4227C45.1164 39.4227 44.2769 39.0767 43.6578 38.4607C43.0388 37.8447 42.691 37.0093 42.691 36.1382C42.691 35.267 43.0388 34.4316 43.6578 33.8156C44.2769 33.1997 45.1164 32.8536 45.9919 32.8536ZM55.8943 32.8536C56.7698 32.8536 57.6094 33.1997 58.2284 33.8156C58.8474 34.4316 59.1952 35.267 59.1952 36.1382C59.1952 37.0093 58.8474 37.8447 58.2284 38.4607C57.6094 39.0767 56.7698 39.4227 55.8943 39.4227C55.0189 39.4227 54.1793 39.0767 53.5603 38.4607C52.9413 37.8447 52.5935 37.0093 52.5935 36.1382C52.5935 35.267 52.9413 34.4316 53.5603 33.8156C54.1793 33.1997 55.0189 32.8536 55.8943 32.8536ZM65.7968 32.8536C66.6723 32.8536 67.5118 33.1997 68.1309 33.8156C68.7499 34.4316 69.0976 35.267 69.0976 36.1382C69.0976 37.0093 68.7499 37.8447 68.1309 38.4607C67.5118 39.0767 66.6723 39.4227 65.7968 39.4227C64.9214 39.4227 64.0818 39.0767 63.4628 38.4607C62.8438 37.8447 62.496 37.0093 62.496 36.1382C62.496 35.267 62.8438 34.4316 63.4628 33.8156C64.0818 33.1997 64.9214 32.8536 65.7968 32.8536Z"/>
<path d="M92.0001 46C92.0001 71.4051 71.4052 92 46.0001 92C20.595 92 0.00012207 71.4051 0.00012207 46C0.00012207 20.5949 20.595 0 46.0001 0C71.4052 0 92.0001 20.5949 92.0001 46Z"/>
</mask>
<path d="M71.5733 23V22V23ZM76.8248 25.1645L77.5302 24.4557L77.5302 24.4557L76.8248 25.1645ZM76.8248 66.8355L77.5302 67.5443L77.5302 67.5443L76.8248 66.8355ZM17.5848 68.4375L17.9659 67.5129L17.9659 67.5129L17.5848 68.4375ZM13.5655 64.4379L14.4887 64.0536L14.4887 64.0536L13.5655 64.4379ZM13.0001 30.3902H12.0001H13.0001ZM15.1754 25.1645L14.47 24.4557L15.1754 25.1645ZM18.6765 28.6483L19.3818 29.3572L18.6765 28.6483ZM73.3238 63.3517L72.6184 62.6428L72.6184 62.6428L73.3238 63.3517ZM73.3238 28.6483L72.6184 29.3572L72.6184 29.3572L73.3238 28.6483ZM28.679 54.2031V53.2031H28.6449L28.6109 53.2055L28.679 54.2031ZM63.3377 54.2031L63.338 53.2031H63.3377V54.2031ZM65.8068 56.4986L64.8092 56.5671L64.8092 56.5671L65.8068 56.4986ZM63.6744 59.107L63.7425 60.1046L63.7764 60.1023L63.81 60.0977L63.6744 59.107ZM63.3377 59.13V60.13H63.3718L63.4058 60.1276L63.3377 59.13ZM28.679 59.13L28.6787 60.13H28.679V59.13ZM26.9897 58.4666L26.3088 59.199L26.3088 59.199L26.9897 58.4666ZM26.7594 55.112L27.5336 55.7449L27.5336 55.7449L26.7594 55.112ZM28.3424 54.2261L28.2742 53.2285L28.2403 53.2308L28.2067 53.2354L28.3424 54.2261ZM63.1961 43.6693L62.4908 44.3781L62.4908 44.3781L63.1961 43.6693ZM58.528 48.3143L57.8227 49.0232L57.8227 49.0232L58.528 48.3143ZM58.528 43.6693L57.8227 42.9604L57.8227 42.9604L58.528 43.6693ZM43.4077 43.6693L42.7023 44.3781L42.7023 44.3781L43.4077 43.6693ZM43.4077 48.3143L42.7023 47.6055L42.7023 47.6055L43.4077 48.3143ZM38.7396 43.6693L39.445 44.3781L39.445 44.3781L38.7396 43.6693ZM33.5052 43.6693L32.7998 44.3781L32.7998 44.3781L33.5052 43.6693ZM33.5052 48.3143L32.7998 47.6055L32.7998 47.6055L33.5052 48.3143ZM28.8371 43.6693L29.5425 44.3781L29.5425 44.3781L28.8371 43.6693ZM53.3102 43.6693L52.6048 44.3781L52.6048 44.3781L53.3102 43.6693ZM48.6421 48.3143L47.9367 49.0232L47.9367 49.0232L48.6421 48.3143ZM48.6421 43.6693L47.9367 42.9604L47.9367 42.9604L48.6421 43.6693ZM28.5375 33.8156L29.2428 33.1068L28.5375 33.8156ZM28.5375 38.4607L27.8321 37.7518L27.8321 37.7518L28.5375 38.4607ZM23.8694 38.4607L24.5747 37.7518L24.5747 37.7518L23.8694 38.4607ZM23.8694 33.8156L23.164 33.1068L23.8694 33.8156ZM38.4234 33.8156L39.1288 33.1068L39.1288 33.1068L38.4234 33.8156ZM38.4234 38.4607L39.1288 39.1695L39.1288 39.1695L38.4234 38.4607ZM33.7554 38.4607L33.05 39.1695L33.05 39.1695L33.7554 38.4607ZM33.7554 33.8156L33.05 33.1068L33.05 33.1068L33.7554 33.8156ZM48.3259 33.8156L49.0313 33.1068L49.0313 33.1068L48.3259 33.8156ZM48.3259 38.4607L49.0313 39.1695L49.0313 39.1695L48.3259 38.4607ZM43.6578 38.4607L42.9525 39.1695L42.9525 39.1695L43.6578 38.4607ZM43.6578 33.8156L42.9525 33.1068L42.9525 33.1068L43.6578 33.8156ZM58.2284 33.8156L57.523 34.5245L57.523 34.5245L58.2284 33.8156ZM58.2284 38.4607L57.523 37.7518L57.523 37.7518L58.2284 38.4607ZM53.5603 38.4607L54.2657 37.7518L54.2657 37.7518L53.5603 38.4607ZM53.5603 33.8156L54.2657 34.5245L54.2657 34.5245L53.5603 33.8156ZM68.1309 33.8156L68.8362 33.1068L68.8362 33.1068L68.1309 33.8156ZM68.1309 38.4607L68.8362 39.1695L68.8362 39.1695L68.1309 38.4607ZM63.4628 33.8156L62.7574 33.1068L62.7574 33.1068L63.4628 33.8156ZM71.5733 24C73.2794 24 74.9146 24.6744 76.1195 25.8734L77.5302 24.4557C75.9495 22.8828 73.8066 22 71.5733 22V24ZM76.1195 25.8734C77.3242 27.0722 78.0001 28.697 78.0001 30.3902H80.0001C80.0001 28.1634 79.1111 26.0288 77.5302 24.4557L76.1195 25.8734ZM78.0001 30.3902V61.6098H80.0001V30.3902H78.0001ZM78.0001 61.6098C78.0001 63.303 77.3242 64.9278 76.1195 66.1266L77.5302 67.5443C79.1111 65.9712 80.0001 63.8366 80.0001 61.6098H78.0001ZM76.1195 66.1266C74.9146 67.3256 73.2794 68 71.5733 68V70C73.8066 70 75.9495 69.1172 77.5302 67.5443L76.1195 66.1266ZM71.5733 68H20.427V70H71.5733V68ZM20.427 68C19.5823 68 18.746 67.8344 17.9659 67.5129L17.2038 69.362C18.2258 69.7833 19.321 70 20.427 70V68ZM17.9659 67.5129C17.1858 67.1914 16.4773 66.7202 15.8808 66.1266L14.47 67.5443C15.2528 68.3232 16.1817 68.9408 17.2038 69.362L17.9659 67.5129ZM15.8808 66.1266C15.2842 65.533 14.8113 64.8285 14.4887 64.0536L12.6423 64.8222C13.0661 65.8405 13.6873 66.7654 14.47 67.5443L15.8808 66.1266ZM14.4887 64.0536C14.1661 63.2787 14.0001 62.4483 14.0001 61.6098H12.0001C12.0001 62.7123 12.2184 63.8039 12.6423 64.8222L14.4887 64.0536ZM14.0001 61.6098V30.3902H12.0001V61.6098H14.0001ZM14.0001 30.3902C14.0001 28.697 14.676 27.0722 15.8808 25.8734L14.47 24.4557C12.8892 26.0288 12.0001 28.1634 12.0001 30.3902L14.0001 30.3902ZM15.8808 25.8734C17.0856 24.6744 18.7209 24 20.427 24V22C18.1936 22 16.0508 22.8828 14.47 24.4557L15.8808 25.8734ZM20.427 24H71.5733V22H20.427V24ZM71.5733 26.9268H20.427V28.9268H71.5733V26.9268ZM20.427 26.9268C19.5068 26.9268 18.6233 27.2905 17.9711 27.9395L19.3818 29.3572C19.6582 29.0822 20.034 28.9268 20.427 28.9268V26.9268ZM17.9711 27.9395C17.3187 28.5886 16.9514 29.4701 16.9514 30.3902H18.9514C18.9514 30.0037 19.1056 29.632 19.3818 29.3572L17.9711 27.9395ZM16.9514 30.3902V61.6098H18.9514V30.3902H16.9514ZM16.9514 61.6098C16.9514 63.5265 18.5128 65.0732 20.427 65.0732V63.0732C19.6081 63.0732 18.9514 62.4126 18.9514 61.6098H16.9514ZM20.427 65.0732H71.5733V63.0732H20.427V65.0732ZM71.5733 65.0732C72.4935 65.0732 73.377 64.7095 74.0291 64.0605L72.6184 62.6428C72.3421 62.9178 71.9662 63.0732 71.5733 63.0732V65.0732ZM74.0291 64.0605C74.6815 63.4114 75.0489 62.5299 75.0489 61.6098H73.0489C73.0489 61.9963 72.8946 62.368 72.6184 62.6428L74.0291 64.0605ZM75.0489 61.6098V30.3902H73.0489V61.6098H75.0489ZM75.0489 30.3902C75.0489 29.4701 74.6815 28.5886 74.0291 27.9395L72.6184 29.3572C72.8946 29.632 73.0489 30.0037 73.0489 30.3902H75.0489ZM74.0291 27.9395C73.377 27.2905 72.4935 26.9268 71.5733 26.9268V28.9268C71.9662 28.9268 72.3421 29.0822 72.6184 29.3572L74.0291 27.9395ZM28.679 55.2031H63.3377V53.2031H28.679V55.2031ZM63.3374 55.2031C63.7128 55.2033 64.0732 55.3452 64.3461 55.5989L65.7079 54.1341C65.0642 53.5357 64.2171 53.2034 63.338 53.2031L63.3374 55.2031ZM64.3461 55.5989C64.6189 55.8525 64.7839 56.1987 64.8092 56.5671L66.8045 56.4302C66.7443 55.5532 66.3518 54.7327 65.7079 54.1341L64.3461 55.5989ZM64.8092 56.5671C64.8345 56.9356 64.7184 57.3005 64.4832 57.5882L66.0316 58.8541C66.588 58.1734 66.8647 57.3071 66.8045 56.4302L64.8092 56.5671ZM64.4832 57.5882C64.2478 57.876 63.9105 58.0653 63.5387 58.1162L63.81 60.0977C64.681 59.9785 65.4752 59.5345 66.0316 58.8541L64.4832 57.5882ZM63.6063 58.1093L63.2696 58.1323L63.4058 60.1276L63.7425 60.1046L63.6063 58.1093ZM63.3377 58.13H28.679V60.13H63.3377V58.13ZM28.6793 58.13C28.304 58.1298 27.9435 57.9879 27.6706 57.7342L26.3088 59.199C26.9525 59.7974 27.7996 60.1297 28.6787 60.13L28.6793 58.13ZM27.6706 57.7342C27.3978 57.4806 27.2329 57.1344 27.2076 56.766L25.2123 56.9029C25.2725 57.7799 25.6649 58.6003 26.3088 59.199L27.6706 57.7342ZM27.2076 56.766C27.1823 56.3975 27.2984 56.0326 27.5336 55.7449L25.9852 54.479C25.4287 55.1597 25.1521 56.026 25.2123 56.9029L27.2076 56.766ZM27.5336 55.7449C27.7689 55.4571 28.1062 55.2678 28.478 55.2169L28.2067 53.2354C27.3357 53.3546 26.5415 53.7986 25.9852 54.479L27.5336 55.7449ZM28.4105 55.2238L28.7472 55.2008L28.6109 53.2055L28.2742 53.2285L28.4105 55.2238ZM60.8621 43.7072C61.4739 43.7072 62.0597 43.9491 62.4908 44.3781L63.9015 42.9604C63.0945 42.1575 62.0011 41.7072 60.8621 41.7072V43.7072ZM62.4908 44.3781C62.9217 44.8069 63.1629 45.3875 63.1629 45.9918H65.1629C65.1629 44.8539 64.7086 43.7635 63.9015 42.9604L62.4908 44.3781ZM63.1629 45.9918C63.1629 46.5961 62.9217 47.1766 62.4908 47.6055L63.9015 49.0232C64.7086 48.22 65.1629 47.1297 65.1629 45.9918H63.1629ZM62.4908 47.6055C62.0597 48.0344 61.4739 48.2763 60.8621 48.2763V50.2763C62.0011 50.2763 63.0945 49.8261 63.9015 49.0232L62.4908 47.6055ZM60.8621 48.2763C60.2503 48.2763 59.6645 48.0344 59.2334 47.6055L57.8227 49.0232C58.6296 49.8261 59.723 50.2763 60.8621 50.2763V48.2763ZM59.2334 47.6055C58.8025 47.1766 58.5613 46.5961 58.5613 45.9918H56.5613C56.5613 47.1297 57.0156 48.22 57.8227 49.0232L59.2334 47.6055ZM58.5613 45.9918C58.5613 45.3875 58.8025 44.8069 59.2334 44.3781L57.8227 42.9604C57.0156 43.7635 56.5613 44.8539 56.5613 45.9918H58.5613ZM59.2334 44.3781C59.6645 43.9491 60.2503 43.7072 60.8621 43.7072V41.7072C59.723 41.7072 58.6296 42.1575 57.8227 42.9604L59.2334 44.3781ZM41.0736 43.7072C41.6854 43.7072 42.2712 43.9491 42.7023 44.3781L44.113 42.9604C43.3061 42.1575 42.2127 41.7072 41.0736 41.7072V43.7072ZM42.7023 44.3781C43.1333 44.8069 43.3745 45.3875 43.3745 45.9918H45.3745C45.3745 44.8539 44.9201 43.7635 44.113 42.9604L42.7023 44.3781ZM43.3745 45.9918C43.3745 46.5961 43.1333 47.1766 42.7023 47.6055L44.113 49.0232C44.9201 48.22 45.3745 47.1297 45.3745 45.9918H43.3745ZM42.7023 47.6055C42.2712 48.0344 41.6854 48.2763 41.0736 48.2763V50.2763C42.2127 50.2763 43.3061 49.8261 44.113 49.0232L42.7023 47.6055ZM41.0736 48.2763C40.4618 48.2763 39.8761 48.0344 39.445 47.6055L38.0342 49.0232C38.8412 49.8261 39.9346 50.2763 41.0736 50.2763V48.2763ZM39.445 47.6055C39.014 47.1766 38.7728 46.5961 38.7728 45.9918H36.7728C36.7728 47.1297 37.2271 48.22 38.0342 49.0232L39.445 47.6055ZM38.7728 45.9918C38.7728 45.3875 39.014 44.8069 39.445 44.3781L38.0342 42.9604C37.2271 43.7635 36.7728 44.8539 36.7728 45.9918H38.7728ZM39.445 44.3781C39.8761 43.9491 40.4618 43.7072 41.0736 43.7072V41.7072C39.9346 41.7072 38.8412 42.1575 38.0342 42.9604L39.445 44.3781ZM31.1712 43.7072C31.783 43.7072 32.3687 43.9491 32.7998 44.3781L34.2106 42.9604C33.4036 42.1575 32.3102 41.7072 31.1712 41.7072V43.7072ZM32.7998 44.3781C33.2308 44.8069 33.472 45.3875 33.472 45.9918H35.472C35.472 44.8539 35.0177 43.7635 34.2106 42.9604L32.7998 44.3781ZM33.472 45.9918C33.472 46.5961 33.2308 47.1766 32.7998 47.6055L34.2106 49.0232C35.0177 48.22 35.472 47.1297 35.472 45.9918H33.472ZM32.7998 47.6055C32.3687 48.0344 31.783 48.2763 31.1712 48.2763V50.2763C32.3102 50.2763 33.4036 49.8261 34.2106 49.0232L32.7998 47.6055ZM31.1712 48.2763C30.5594 48.2763 29.9736 48.0344 29.5425 47.6055L28.1318 49.0232C28.9387 49.8261 30.0321 50.2763 31.1712 50.2763V48.2763ZM29.5425 47.6055C29.1115 47.1766 28.8703 46.5961 28.8703 45.9918H26.8703C26.8703 47.1297 27.3247 48.22 28.1318 49.0232L29.5425 47.6055ZM28.8703 45.9918C28.8703 45.3875 29.1115 44.8069 29.5425 44.3781L28.1318 42.9604C27.3247 43.7635 26.8703 44.8539 26.8703 45.9918H28.8703ZM29.5425 44.3781C29.9736 43.9491 30.5594 43.7072 31.1712 43.7072V41.7072C30.0321 41.7072 28.9387 42.1575 28.1318 42.9604L29.5425 44.3781ZM50.9761 43.7072C51.5879 43.7072 52.1737 43.9491 52.6048 44.3781L54.0155 42.9604C53.2086 42.1575 52.1152 41.7072 50.9761 41.7072V43.7072ZM52.6048 44.3781C53.0357 44.8069 53.2769 45.3875 53.2769 45.9918H55.2769C55.2769 44.8539 54.8226 43.7635 54.0155 42.9604L52.6048 44.3781ZM53.2769 45.9918C53.2769 46.5961 53.0357 47.1766 52.6048 47.6055L54.0155 49.0232C54.8226 48.22 55.2769 47.1297 55.2769 45.9918H53.2769ZM52.6048 47.6055C52.1737 48.0344 51.5879 48.2763 50.9761 48.2763V50.2763C52.1152 50.2763 53.2086 49.8261 54.0155 49.0232L52.6048 47.6055ZM50.9761 48.2763C50.3643 48.2763 49.7785 48.0344 49.3474 47.6055L47.9367 49.0232C48.7437 49.8261 49.8371 50.2763 50.9761 50.2763V48.2763ZM49.3474 47.6055C48.9165 47.1766 48.6753 46.5961 48.6753 45.9918H46.6753C46.6753 47.1297 47.1296 48.22 47.9367 49.0232L49.3474 47.6055ZM48.6753 45.9918C48.6753 45.3875 48.9165 44.8069 49.3474 44.3781L47.9367 42.9604C47.1296 43.7635 46.6753 44.8539 46.6753 45.9918H48.6753ZM49.3474 44.3781C49.7785 43.9491 50.3643 43.7072 50.9761 43.7072V41.7072C49.8371 41.7072 48.7437 42.1575 47.9367 42.9604L49.3474 44.3781ZM26.2034 33.8536C26.8152 33.8536 27.401 34.0955 27.8321 34.5245L29.2428 33.1068C28.4359 32.3038 27.3425 31.8536 26.2034 31.8536V33.8536ZM27.8321 34.5245C28.263 34.9533 28.5042 35.5339 28.5042 36.1382H30.5042C30.5042 35.0002 30.0499 33.9099 29.2428 33.1068L27.8321 34.5245ZM28.5042 36.1382C28.5042 36.7425 28.263 37.323 27.8321 37.7518L29.2428 39.1695C30.0499 38.3664 30.5042 37.2761 30.5042 36.1382H28.5042ZM27.8321 37.7518C27.401 38.1808 26.8152 38.4227 26.2034 38.4227V40.4227C27.3425 40.4227 28.4359 39.9725 29.2428 39.1695L27.8321 37.7518ZM26.2034 38.4227C25.5916 38.4227 25.0059 38.1808 24.5747 37.7518L23.164 39.1695C23.971 39.9725 25.0644 40.4227 26.2034 40.4227V38.4227ZM24.5747 37.7518C24.1438 37.323 23.9026 36.7425 23.9026 36.1382H21.9026C21.9026 37.2761 22.3569 38.3664 23.164 39.1695L24.5747 37.7518ZM23.9026 36.1382C23.9026 35.5339 24.1438 34.9533 24.5747 34.5245L23.164 33.1068C22.3569 33.9099 21.9026 35.0002 21.9026 36.1382H23.9026ZM24.5747 34.5245C25.0059 34.0955 25.5916 33.8536 26.2034 33.8536V31.8536C25.0644 31.8536 23.971 32.3038 23.164 33.1068L24.5747 34.5245ZM36.0894 33.8536C36.7012 33.8536 37.287 34.0955 37.7181 34.5245L39.1288 33.1068C38.3218 32.3038 37.2285 31.8536 36.0894 31.8536V33.8536ZM37.7181 34.5245C38.149 34.9533 38.3902 35.5339 38.3902 36.1382H40.3902C40.3902 35.0002 39.9359 33.9099 39.1288 33.1068L37.7181 34.5245ZM38.3902 36.1382C38.3902 36.7425 38.149 37.323 37.7181 37.7518L39.1288 39.1695C39.9359 38.3664 40.3902 37.2761 40.3902 36.1382H38.3902ZM37.7181 37.7518C37.287 38.1808 36.7012 38.4227 36.0894 38.4227V40.4227C37.2285 40.4227 38.3218 39.9725 39.1288 39.1695L37.7181 37.7518ZM36.0894 38.4227C35.4776 38.4227 34.8918 38.1808 34.4607 37.7518L33.05 39.1695C33.8569 39.9725 34.9503 40.4227 36.0894 40.4227V38.4227ZM34.4607 37.7518C34.0298 37.323 33.7886 36.7425 33.7886 36.1382H31.7886C31.7886 37.2761 32.2429 38.3664 33.05 39.1695L34.4607 37.7518ZM33.7886 36.1382C33.7886 35.5339 34.0298 34.9533 34.4607 34.5245L33.05 33.1068C32.2429 33.9099 31.7886 35.0002 31.7886 36.1382H33.7886ZM34.4607 34.5245C34.8918 34.0955 35.4776 33.8536 36.0894 33.8536V31.8536C34.9503 31.8536 33.8569 32.3038 33.05 33.1068L34.4607 34.5245ZM45.9919 33.8536C46.6037 33.8536 47.1894 34.0955 47.6205 34.5245L49.0313 33.1068C48.2243 32.3038 47.1309 31.8536 45.9919 31.8536V33.8536ZM47.6205 34.5245C48.0515 34.9533 48.2927 35.5339 48.2927 36.1382H50.2927C50.2927 35.0002 49.8384 33.9099 49.0313 33.1068L47.6205 34.5245ZM48.2927 36.1382C48.2927 36.7425 48.0515 37.323 47.6205 37.7518L49.0313 39.1695C49.8384 38.3664 50.2927 37.2761 50.2927 36.1382H48.2927ZM47.6205 37.7518C47.1894 38.1808 46.6037 38.4227 45.9919 38.4227V40.4227C47.1309 40.4227 48.2243 39.9725 49.0313 39.1695L47.6205 37.7518ZM45.9919 38.4227C45.3801 38.4227 44.7943 38.1808 44.3632 37.7518L42.9525 39.1695C43.7594 39.9725 44.8528 40.4227 45.9919 40.4227V38.4227ZM44.3632 37.7518C43.9322 37.323 43.691 36.7425 43.691 36.1382H41.691C41.691 37.2761 42.1454 38.3664 42.9525 39.1695L44.3632 37.7518ZM43.691 36.1382C43.691 35.5339 43.9322 34.9533 44.3632 34.5245L42.9525 33.1068C42.1454 33.9099 41.691 35.0002 41.691 36.1382H43.691ZM44.3632 34.5245C44.7943 34.0955 45.3801 33.8536 45.9919 33.8536V31.8536C44.8528 31.8536 43.7594 32.3038 42.9525 33.1068L44.3632 34.5245ZM55.8943 33.8536C56.5062 33.8536 57.0919 34.0955 57.523 34.5245L58.9337 33.1068C58.1268 32.3038 57.0334 31.8536 55.8943 31.8536V33.8536ZM57.523 34.5245C57.954 34.9533 58.1952 35.5339 58.1952 36.1382H60.1952C60.1952 35.0002 59.7408 33.9099 58.9337 33.1068L57.523 34.5245ZM58.1952 36.1382C58.1952 36.7425 57.954 37.323 57.523 37.7518L58.9337 39.1695C59.7408 38.3664 60.1952 37.2761 60.1952 36.1382H58.1952ZM57.523 37.7518C57.0919 38.1808 56.5062 38.4227 55.8943 38.4227V40.4227C57.0334 40.4227 58.1268 39.9725 58.9337 39.1695L57.523 37.7518ZM55.8943 38.4227C55.2825 38.4227 54.6968 38.1808 54.2657 37.7518L52.855 39.1695C53.6619 39.9725 54.7553 40.4227 55.8943 40.4227V38.4227ZM54.2657 37.7518C53.8347 37.323 53.5935 36.7425 53.5935 36.1382H51.5935C51.5935 37.2761 52.0479 38.3664 52.855 39.1695L54.2657 37.7518ZM53.5935 36.1382C53.5935 35.5339 53.8347 34.9533 54.2657 34.5245L52.855 33.1068C52.0479 33.9099 51.5935 35.0002 51.5935 36.1382H53.5935ZM54.2657 34.5245C54.6968 34.0955 55.2825 33.8536 55.8943 33.8536V31.8536C54.7553 31.8536 53.6619 32.3038 52.855 33.1068L54.2657 34.5245ZM65.7968 33.8536C66.4086 33.8536 66.9944 34.0955 67.4255 34.5245L68.8362 33.1068C68.0293 32.3038 66.9359 31.8536 65.7968 31.8536V33.8536ZM67.4255 34.5245C67.8564 34.9533 68.0976 35.5339 68.0976 36.1382H70.0976C70.0976 35.0002 69.6433 33.9099 68.8362 33.1068L67.4255 34.5245ZM68.0976 36.1382C68.0976 36.7425 67.8564 37.323 67.4255 37.7518L68.8362 39.1695C69.6433 38.3664 70.0976 37.2761 70.0976 36.1382H68.0976ZM67.4255 37.7518C66.9944 38.1808 66.4086 38.4227 65.7968 38.4227V40.4227C66.9359 40.4227 68.0293 39.9725 68.8362 39.1695L67.4255 37.7518ZM65.7968 38.4227C65.185 38.4227 64.5993 38.1808 64.1681 37.7518L62.7574 39.1695C63.5644 39.9725 64.6578 40.4227 65.7968 40.4227V38.4227ZM64.1681 37.7518C63.7372 37.323 63.496 36.7425 63.496 36.1382H61.496C61.496 37.2761 61.9503 38.3664 62.7574 39.1695L64.1681 37.7518ZM63.496 36.1382C63.496 35.5339 63.7372 34.9533 64.1681 34.5245L62.7574 33.1068C61.9503 33.9099 61.496 35.0002 61.496 36.1382H63.496ZM64.1681 34.5245C64.5993 34.0955 65.185 33.8536 65.7968 33.8536V31.8536C64.6578 31.8536 63.5644 32.3038 62.7574 33.1068L64.1681 34.5245ZM91.0001 46C91.0001 70.8528 70.8529 91 46.0001 91V93C71.9575 93 93.0001 71.9574 93.0001 46H91.0001ZM46.0001 91C21.1473 91 1.00012 70.8528 1.00012 46H-0.999878C-0.999878 71.9574 20.0427 93 46.0001 93V91ZM1.00012 46C1.00012 21.1472 21.1473 1 46.0001 1V-1C20.0427 -1 -0.999878 20.0426 -0.999878 46H1.00012ZM46.0001 1C70.8529 1 91.0001 21.1472 91.0001 46H93.0001C93.0001 20.0426 71.9575 -1 46.0001 -1V1Z" fill="#EC7979" mask="url(#path-1-inside-1_7258_338)"/></symbol>
<symbol viewBox="0 0 92 92" fill="none" id='spi'><mask id="path-1-inside-1_7258_339" fill="white">
<path d="M36.7308 78.8114C36.2572 78.6078 35.8637 78.2494 35.6123 77.7927C35.3608 77.336 35.2659 76.8071 35.3423 76.2893L39.5542 48.3575H28.3765C28.0221 48.3672 27.6703 48.2939 27.3482 48.1432C27.026 47.9925 26.7422 47.7684 26.5186 47.4882C26.2949 47.2081 26.1375 46.8793 26.0584 46.5274C25.9793 46.1754 25.9806 45.8096 26.0622 45.4583L33.0049 14.8158C33.1271 14.2885 33.4239 13.8201 33.8454 13.4895C34.2669 13.1589 34.7874 12.9864 35.3192 13.0008H58.4615C58.8072 12.9996 59.1488 13.0774 59.4612 13.2283C59.7735 13.3792 60.0488 13.5995 60.2666 13.873C60.4875 14.1495 60.6439 14.4735 60.724 14.8206C60.8042 15.1676 60.806 15.5287 60.7294 15.8765L56.7258 34.2149H67.7184C68.1521 34.214 68.5774 34.3373 68.9456 34.5706C69.3139 34.804 69.6104 35.1381 69.8012 35.5348C69.967 35.9156 70.0309 36.3343 69.9861 36.7484C69.9414 37.1624 69.7898 37.557 69.5466 37.892L39.4616 77.9629C39.2583 78.2699 38.9868 78.5238 38.6692 78.7039C38.3515 78.8841 37.9967 78.9856 37.6334 79C37.3237 78.9941 37.0178 78.9302 36.7308 78.8114ZM50.9402 38.9291L55.5687 17.7151H37.1705L31.2924 43.6433H44.9695L41.2899 67.8744L63.0899 38.9291H50.9402Z"/>
<path d="M92 46C92 71.4051 71.4051 92 46 92C20.5949 92 0 71.4051 0 46C0 20.5949 20.5949 0 46 0C71.4051 0 92 20.5949 92 46Z"/>
</mask>
<path d="M36.7308 78.8114L36.3358 79.7302L36.3484 79.7354L36.7308 78.8114ZM35.6123 77.7927L34.7363 78.275L34.7363 78.275L35.6123 77.7927ZM35.3423 76.2893L34.3535 76.1402L34.353 76.1433L35.3423 76.2893ZM39.5542 48.3575L40.543 48.5066L40.7163 47.3575H39.5542V48.3575ZM28.3765 48.3575V47.3575H28.3628L28.3491 47.3579L28.3765 48.3575ZM26.5186 47.4882L25.737 48.1121L25.737 48.1121L26.5186 47.4882ZM26.0622 45.4583L27.0363 45.6847L27.0375 45.6793L26.0622 45.4583ZM33.0049 14.8158L32.0307 14.5901L32.0297 14.5948L33.0049 14.8158ZM35.3192 13.0008L35.2919 14.0005L35.3056 14.0008H35.3192V13.0008ZM58.4615 13.0008V14.0008L58.4649 14.0008L58.4615 13.0008ZM59.4612 13.2283L59.8962 12.3279L59.8962 12.3279L59.4612 13.2283ZM60.2666 13.873L59.4843 14.496L59.4852 14.497L60.2666 13.873ZM60.724 14.8206L61.6984 14.5955V14.5955L60.724 14.8206ZM60.7294 15.8765L59.7528 15.6614L59.7524 15.6632L60.7294 15.8765ZM56.7258 34.2149L55.7488 34.0016L55.4839 35.2149H56.7258V34.2149ZM67.7184 34.2149V35.2149L67.7204 35.2149L67.7184 34.2149ZM68.9456 34.5706L68.4103 35.4153H68.4103L68.9456 34.5706ZM69.8012 35.5348L70.718 35.1355L70.7105 35.1183L70.7023 35.1013L69.8012 35.5348ZM69.9861 36.7484L68.9919 36.641V36.641L69.9861 36.7484ZM69.5466 37.892L70.3463 38.4924L70.3512 38.4859L70.3559 38.4794L69.5466 37.892ZM39.4616 77.9629L38.6619 77.3625L38.6442 77.3861L38.6279 77.4107L39.4616 77.9629ZM38.6692 78.7039L38.1758 77.8341L38.1758 77.8341L38.6692 78.7039ZM37.6334 79L37.6144 79.9998L37.6438 80.0004L37.6731 79.9992L37.6334 79ZM50.9402 38.9291L49.9632 38.7159L49.6985 39.9291H50.9402V38.9291ZM55.5687 17.7151L56.5457 17.9282L56.8104 16.7151H55.5687V17.7151ZM37.1705 17.7151V16.7151H36.3719L36.1953 17.494L37.1705 17.7151ZM31.2924 43.6433L30.3172 43.4222L30.0403 44.6433H31.2924V43.6433ZM44.9695 43.6433L45.9582 43.7934L46.1328 42.6433H44.9695V43.6433ZM41.2899 67.8744L40.3012 67.7243L42.0887 68.476L41.2899 67.8744ZM63.0899 38.9291L63.8887 39.5307L65.095 37.9291H63.0899V38.9291ZM37.1258 77.8927C36.8591 77.7781 36.6337 77.5746 36.4883 77.3104L34.7363 78.275C35.0937 78.9242 35.6554 79.4375 36.3359 79.7301L37.1258 77.8927ZM36.4883 77.3104C36.3427 77.046 36.2869 76.7379 36.3316 76.4354L34.353 76.1433C34.2448 76.8763 34.379 77.6261 34.7363 78.275L36.4883 77.3104ZM36.3311 76.4384L40.543 48.5066L38.5654 48.2084L34.3535 76.1402L36.3311 76.4384ZM39.5542 47.3575H28.3765V49.3575H39.5542V47.3575ZM28.3491 47.3579C28.1509 47.3633 27.9535 47.3224 27.772 47.2374L26.9243 49.0489C27.387 49.2654 27.8933 49.3712 28.4039 49.3572L28.3491 47.3579ZM27.772 47.2374C27.5903 47.1524 27.4286 47.0253 27.3001 46.8644L25.737 48.1121C26.0558 48.5115 26.4617 48.8325 26.9243 49.0489L27.772 47.2374ZM27.3001 46.8644C27.1716 46.7034 27.0801 46.5132 27.034 46.308L25.0827 46.7467C25.1949 47.2455 25.4183 47.7127 25.737 48.1121L27.3001 46.8644ZM27.034 46.308C26.9879 46.1029 26.9887 45.8895 27.0363 45.6847L25.0882 45.2319C24.9725 45.7298 24.9706 46.2479 25.0827 46.7467L27.034 46.308ZM27.0375 45.6793L33.9802 15.0368L32.0297 14.5948L25.087 45.2373L27.0375 45.6793ZM33.9791 15.0415C34.0504 14.7339 34.2227 14.4645 34.4625 14.2764L33.2283 12.7026C32.6252 13.1757 32.2038 13.843 32.0307 14.5901L33.9791 15.0415ZM34.4625 14.2764C34.702 14.0886 34.9949 13.9924 35.2919 14.0005L35.3464 12.0012C34.5798 11.9803 33.8318 12.2293 33.2283 12.7026L34.4625 14.2764ZM35.3192 14.0008H58.4615V12.0008H35.3192V14.0008ZM58.4649 14.0008C58.6583 14.0002 58.85 14.0436 59.0261 14.1287L59.8962 12.3279C59.4476 12.1111 58.9561 11.9991 58.458 12.0008L58.4649 14.0008ZM59.0261 14.1287C59.2024 14.2138 59.3592 14.3389 59.4844 14.496L61.0488 13.25C60.7383 12.8601 60.3447 12.5446 59.8962 12.3279L59.0261 14.1287ZM59.4852 14.497C59.6121 14.656 59.703 14.8434 59.7497 15.0457L61.6984 14.5955C61.5848 14.1036 61.3628 13.6431 61.0479 13.2489L59.4852 14.497ZM59.7497 15.0457C59.7964 15.2479 59.7975 15.4586 59.7528 15.6614L61.706 16.0917C61.8146 15.5987 61.812 15.0873 61.6984 14.5955L59.7497 15.0457ZM59.7524 15.6632L55.7488 34.0016L57.7028 34.4282L61.7064 16.0898L59.7524 15.6632ZM56.7258 35.2149H67.7184V33.2149H56.7258V35.2149ZM67.7204 35.2149C67.9629 35.2144 68.2019 35.2832 68.4103 35.4153L69.4809 33.726C68.9529 33.3913 68.3414 33.2136 67.7164 33.2149L67.7204 35.2149ZM68.4103 35.4153C68.619 35.5475 68.7895 35.7385 68.9 35.9684L70.7023 35.1013C70.4312 34.5378 70.0088 34.0605 69.4809 33.726L68.4103 35.4153ZM68.8844 35.9342C68.9806 36.1552 69.018 36.3992 68.9919 36.641L70.9803 36.8558C71.0437 36.2694 70.9534 35.676 70.718 35.1355L68.8844 35.9342ZM68.9919 36.641C68.9658 36.8828 68.8774 37.1116 68.7374 37.3045L70.3559 38.4794C70.7022 38.0024 70.917 37.4421 70.9803 36.8557L68.9919 36.641ZM68.7469 37.2915L38.6619 77.3625L40.2613 78.5633L70.3463 38.4924L68.7469 37.2915ZM38.6279 77.4107C38.5107 77.5877 38.3554 77.7322 38.1758 77.8341L39.1626 79.5737C39.6183 79.3153 40.0059 78.9521 40.2954 78.5151L38.6279 77.4107ZM38.1758 77.8341C37.9962 77.936 37.7968 77.9927 37.5937 78.0008L37.6731 79.9992C38.1965 79.9784 38.7069 79.8323 39.1626 79.5737L38.1758 77.8341ZM37.6524 78.0002C37.4679 77.9967 37.2852 77.9586 37.1133 77.8874L36.3484 79.7354C36.7504 79.9018 37.1796 79.9915 37.6144 79.9998L37.6524 78.0002ZM51.9172 39.1423L56.5457 17.9282L54.5917 17.5019L49.9632 38.7159L51.9172 39.1423ZM55.5687 16.7151H37.1705V18.7151H55.5687V16.7151ZM36.1953 17.494L30.3172 43.4222L32.2677 43.8644L38.1458 17.9362L36.1953 17.494ZM31.2924 44.6433H44.9695V42.6433H31.2924V44.6433ZM43.9808 43.4932L40.3012 67.7243L42.2785 68.0246L45.9582 43.7934L43.9808 43.4932ZM42.0887 68.476L63.8887 39.5307L62.2911 38.3275L40.4911 67.2728L42.0887 68.476ZM63.0899 37.9291H50.9402V39.9291H63.0899V37.9291ZM91 46C91 70.8528 70.8528 91 46 91V93C71.9574 93 93 71.9574 93 46H91ZM46 91C21.1472 91 1 70.8528 1 46H-1C-1 71.9574 20.0426 93 46 93V91ZM1 46C1 21.1472 21.1472 1 46 1V-1C20.0426 -1 -1 20.0426 -1 46H1ZM46 1C70.8528 1 91 21.1472 91 46H93C93 20.0426 71.9574 -1 46 -1V1Z" fill="#EC7979" mask="url(#path-1-inside-1_7258_339)"/></symbol>


</svg>