<svg display='none' xmlns="http://www.w3.org/2000/svg">
<symbol viewBox="0 0 88 32" fill="none" id='logo'>
<path d="M10.6011 0.456055H16.1137L26.3906 31.1461H20.7993L18.2006 23.4952H8.43549L5.87609 31.1461H0.28479L10.6011 0.456055ZM17.2162 19.3023L13.3574 6.63729L9.34112 19.3023H17.2162Z" fill="white"/>
<path d="M32.3708 0.456055L39.3008 11.7811L46.1915 0.456055H52.0978L42.4115 16.0172L51.7828 31.1461H45.8765L39.3008 20.2533L32.6858 31.1461H26.7401L36.1114 16.0172L26.4251 0.456055H32.3708Z" fill="white"/>
<path d="M54.9125 31.1461V0.456055H60.3463V31.1461H54.9125Z" fill="#EC7979"/>
<path d="M87.0874 5.68633H78.1492V31.1461H72.7548V5.68633H63.8166V0.456055H87.0874V5.68633Z" fill="#EC7979"/>
</symbol>
<symbol viewBox="0 0 70 70" fill="none" id='face'>
<path d="M26.827 62.7083H38.4937V39.3458H49.0054L50.1604 27.7375H38.4937V21.875C38.4937 21.1014 38.801 20.3595 39.348 19.8126C39.8949 19.2656 40.6368 18.9583 41.4104 18.9583H50.1604V7.29163H41.4104C37.5426 7.29163 33.8333 8.82808 31.0984 11.563C28.3635 14.2979 26.827 18.0072 26.827 21.875V27.7375H20.9937L19.8387 39.3458H26.827V62.7083Z" fill="#CCCCCC"/>
</symbol>
<symbol viewBox="0 0 70 70" fill="none" id='twitter'>
<path d="M57.2629 23.3247C57.3008 23.8351 57.3008 24.3426 57.3008 24.8501C57.3008 40.3813 45.4796 58.278 23.8758 58.278C17.22 58.278 11.0366 56.3501 5.83331 53.0018C6.77831 53.1097 7.68831 53.1476 8.67123 53.1476C13.9591 53.1604 19.0973 51.3922 23.2575 48.128C20.8058 48.0836 18.4292 47.2748 16.4594 45.8143C14.4897 44.3539 13.0252 42.3148 12.2704 39.9818C12.9966 40.0897 13.7258 40.1626 14.49 40.1626C15.5429 40.1626 16.6016 40.0168 17.5846 39.763C14.9239 39.2258 12.5314 37.7836 10.8139 35.6817C9.09637 33.5797 8.15992 30.9478 8.16373 28.2334V28.0876C9.72998 28.9597 11.5471 29.5051 13.4721 29.578C11.8594 28.5064 10.5371 27.0522 9.62305 25.3453C8.70903 23.6384 8.23173 21.7317 8.23373 19.7955C8.23373 17.6138 8.81415 15.613 9.83206 13.8688C12.7841 17.5001 16.466 20.4709 20.6393 22.5887C24.8126 24.7065 29.3841 25.924 34.0579 26.1626C33.8771 25.2876 33.7662 24.3805 33.7662 23.4705C33.7655 21.9275 34.0688 20.3994 34.659 18.9737C35.2491 17.548 36.1144 16.2526 37.2055 15.1615C38.2966 14.0704 39.592 13.205 41.0178 12.6149C42.4435 12.0248 43.9715 11.7214 45.5146 11.7222C48.8979 11.7222 51.9516 13.1397 54.0983 15.4322C56.7285 14.9236 59.2507 13.9634 61.5533 12.5943C60.6766 15.3091 58.8401 17.6112 56.3879 19.0693C58.7206 18.8032 61.0004 18.1897 63.1516 17.2493C61.5449 19.5916 59.554 21.6457 57.2629 23.3247Z" fill="#CCCCCC"/>
</symbol>
<symbol viewBox="0 0 70 70" fill="none" id='linkidin'>
<path d="M58.3333 8.75H11.6667C10.8931 8.75 10.1513 9.05729 9.60427 9.60427C9.05729 10.1513 8.75 10.8931 8.75 11.6667V58.3333C8.75 59.1069 9.05729 59.8488 9.60427 60.3957C10.1513 60.9427 10.8931 61.25 11.6667 61.25H58.3333C59.1069 61.25 59.8488 60.9427 60.3957 60.3957C60.9427 59.8488 61.25 59.1069 61.25 58.3333V11.6667C61.25 10.8931 60.9427 10.1513 60.3957 9.60427C59.8488 9.05729 59.1069 8.75 58.3333 8.75ZM24.3221 53.4829H16.5287V28.4287H24.3221V53.4829ZM20.4254 25.0075C19.228 25.0075 18.0796 24.5318 17.2328 23.6851C16.3861 22.8384 15.9104 21.69 15.9104 20.4925C15.9104 19.295 16.3861 18.1466 17.2328 17.2999C18.0796 16.4532 19.228 15.9775 20.4254 15.9775C21.6229 15.9775 22.7713 16.4532 23.618 17.2999C24.4647 18.1466 24.9404 19.295 24.9404 20.4925C24.9404 21.69 24.4647 22.8384 23.618 23.6851C22.7713 24.5318 21.6229 25.0075 20.4254 25.0075ZM53.4858 53.4829H45.7012V41.3C45.7012 38.395 45.6488 34.6588 41.6529 34.6588C37.5988 34.6588 36.9833 37.8263 36.9833 41.0958V53.4858H29.2046V28.4317H36.6713V31.8558H36.7792C37.8146 29.8871 40.3579 27.8104 44.1408 27.8104C52.0275 27.8104 53.4829 32.9963 53.4829 39.7454V53.4829H53.4858Z" fill="#CCCCCC"/>
</symbol>
<symbol viewBox="0 0 70 70" fill="none" id='pinterest'>
<path d="M26.3667 62.8251C29.1667 63.6709 31.9958 64.1667 35 64.1667C42.7355 64.1667 50.1542 61.0938 55.624 55.624C61.0938 50.1542 64.1667 42.7355 64.1667 35C64.1667 31.1698 63.4123 27.3771 61.9465 23.8384C60.4807 20.2998 58.3323 17.0845 55.624 14.3761C52.9156 11.6677 49.7003 9.51932 46.1616 8.05355C42.623 6.58779 38.8302 5.83337 35 5.83337C31.1698 5.83337 27.3771 6.58779 23.8384 8.05355C20.2997 9.51932 17.0844 11.6677 14.3761 14.3761C8.90625 19.8459 5.83334 27.2646 5.83334 35C5.83334 47.3959 13.6208 58.0417 24.6167 62.2417C24.3542 59.9667 24.0917 56.2042 24.6167 53.6084L27.9708 39.2C27.9708 39.2 27.125 37.5084 27.125 34.825C27.125 30.8 29.6333 27.7959 32.4917 27.7959C35 27.7959 36.1667 29.6334 36.1667 31.9959C36.1667 34.5042 34.5042 38.0917 33.6583 41.5334C33.1625 44.3917 35.175 46.9 38.0917 46.9C43.2833 46.9 47.3083 41.3584 47.3083 33.5417C47.3083 26.5417 42.2917 21.7584 35.0875 21.7584C26.8625 21.7584 22.0208 27.8834 22.0208 34.3292C22.0208 36.8375 22.8375 39.375 24.1792 41.0375C24.4417 41.2125 24.4417 41.4459 24.3542 41.8834L23.5083 45.0625C23.5083 45.5584 23.1875 45.7334 22.6917 45.3834C18.9583 43.75 16.8 38.4417 16.8 34.1542C16.8 24.9375 23.3333 16.5667 35.9333 16.5667C45.9667 16.5667 53.7834 23.7709 53.7834 33.3375C53.7834 43.3709 47.5709 51.4209 38.675 51.4209C35.8458 51.4209 33.075 49.9042 32.0833 48.125L30.1292 55.0375C29.4583 57.5459 27.6208 60.9 26.3667 62.9125V62.8251Z" fill="#CCCCCC"/>
</symbol>
<symbol viewBox="0 0 70 70" fill="none" id='insta'>
<path d="M61.0956 24.2228C61.0661 22.0138 60.6526 19.8267 59.8735 17.7595C59.1978 16.0157 58.1659 14.4321 56.8436 13.1098C55.5212 11.7875 53.9376 10.7555 52.1939 10.0799C50.1532 9.31383 47.9973 8.89962 45.8181 8.85487C43.0122 8.72946 42.1226 8.69446 35.0001 8.69446C27.8776 8.69446 26.9647 8.69446 24.1793 8.85487C22.001 8.89995 19.8462 9.31416 17.8064 10.0799C16.0624 10.7551 14.4785 11.7868 13.1562 13.1092C11.8338 14.4316 10.802 16.0155 10.1268 17.7595C9.35923 19.7986 8.94592 21.9539 8.90473 24.1324C8.77931 26.9411 8.74139 27.8307 8.74139 34.9532C8.74139 42.0757 8.74139 42.9857 8.90473 45.774C8.94848 47.9557 9.35973 50.1082 10.1268 52.1528C10.8031 53.8963 11.8357 55.4795 13.1585 56.8013C14.4813 58.1231 16.0653 59.1545 17.8093 59.8295C19.8435 60.6263 21.9987 61.0701 24.1822 61.142C26.991 61.2674 27.8806 61.3053 35.0031 61.3053C42.1256 61.3053 43.0385 61.3053 45.8239 61.142C48.0031 61.099 50.1591 60.6858 52.1997 59.9199C53.943 59.2434 55.5262 58.2112 56.8484 56.889C58.1707 55.5668 59.2029 53.9836 59.8793 52.2403C60.6464 50.1986 61.0576 48.0461 61.1014 45.8615C61.2268 43.0557 61.2647 42.1661 61.2647 35.0407C61.2589 27.9182 61.2589 27.014 61.0956 24.2228ZM34.9826 48.4224C27.5335 48.4224 21.4989 42.3878 21.4989 34.9386C21.4989 27.4895 27.5335 21.4549 34.9826 21.4549C38.5588 21.4549 41.9884 22.8755 44.5171 25.4042C47.0458 27.9329 48.4664 31.3625 48.4664 34.9386C48.4664 38.5147 47.0458 41.9444 44.5171 44.4731C41.9884 47.0018 38.5588 48.4224 34.9826 48.4224ZM49.0031 24.1003C48.5901 24.1007 48.181 24.0196 47.7994 23.8617C47.4177 23.7039 47.071 23.4723 46.7789 23.1802C46.4869 22.8882 46.2553 22.5414 46.0974 22.1598C45.9396 21.7782 45.8585 21.3691 45.8589 20.9561C45.8589 20.5434 45.9402 20.1348 46.0981 19.7535C46.2561 19.3722 46.4875 19.0257 46.7794 18.7339C47.0712 18.4421 47.4176 18.2106 47.7989 18.0526C48.1802 17.8947 48.5889 17.8134 49.0016 17.8134C49.4143 17.8134 49.823 17.8947 50.2043 18.0526C50.5856 18.2106 50.932 18.4421 51.2238 18.7339C51.5157 19.0257 51.7472 19.3722 51.9051 19.7535C52.063 20.1348 52.1443 20.5434 52.1443 20.9561C52.1443 22.6945 50.7385 24.1003 49.0031 24.1003Z" fill="#CCCCCC"/>
<path d="M34.9829 43.6974C39.8202 43.6974 43.7416 39.776 43.7416 34.9387C43.7416 30.1014 39.8202 26.1799 34.9829 26.1799C30.1456 26.1799 26.2242 30.1014 26.2242 34.9387C26.2242 39.776 30.1456 43.6974 34.9829 43.6974Z" fill="#CCCCCC"/>
</symbol>
<symbol viewBox="0 0 70 70" fill="none" id='git'>
<path fill-rule="evenodd" clip-rule="evenodd" d="M35.0754 5.83337C19.0075 5.83337 5.98454 18.8563 5.98454 34.9242C5.98454 47.775 14.3175 58.6805 25.8791 62.5305C27.3345 62.793 27.8595 61.8975 27.8595 61.1275C27.8595 60.4363 27.8362 58.6046 27.8275 56.1809C19.7337 57.9367 18.0245 52.2784 18.0245 52.2784C16.7062 48.9184 14.7958 48.023 14.7958 48.023C12.1562 46.2175 14.997 46.2584 14.997 46.2584C17.9195 46.4625 19.4508 49.2567 19.4508 49.2567C22.0466 53.7017 26.2641 52.4184 27.915 51.6746C28.1804 49.7934 28.9387 48.51 29.767 47.7838C23.3095 47.0517 16.5195 44.555 16.5195 33.4046C16.5195 30.2342 17.6541 27.6325 19.5062 25.6025C19.2116 24.8646 18.2054 21.9042 19.795 17.9025C19.795 17.9025 22.2362 17.118 27.7925 20.8805C30.1654 20.2349 32.6132 19.9054 35.0725 19.9005C37.5317 19.9044 39.9797 20.234 42.3525 20.8805C47.9116 17.115 50.35 17.9025 50.35 17.9025C51.9395 21.9042 50.942 24.8646 50.6387 25.6025C52.5054 27.6325 53.6254 30.2313 53.6254 33.4046C53.6254 44.5842 46.8295 47.04 40.3487 47.7605C41.3841 48.6588 42.3175 50.4321 42.3175 53.1446C42.3175 57.0355 42.2825 60.1738 42.2825 61.1275C42.2825 61.9063 42.8016 62.8105 44.2862 62.5246C55.842 58.6688 64.1662 47.7721 64.1662 34.9242C64.1662 18.8563 51.1433 5.83337 35.0754 5.83337Z" fill="#CCCCCC"/>
</symbol>
<symbol  fill="none" id='rss'>
<path d="M18.025 58.3334C21.5366 58.3334 24.3833 55.4866 24.3833 51.975C24.3833 48.4634 21.5366 45.6167 18.025 45.6167C14.5134 45.6167 11.6667 48.4634 11.6667 51.975C11.6667 55.4866 14.5134 58.3334 18.025 58.3334Z" fill="#CCCCCC"/>
<path d="M11.6667 12.9498V21.204C32.1708 21.204 48.7958 37.829 48.7958 58.3332H57.05C57.05 33.279 36.7208 12.9498 11.6667 12.9498ZM11.6667 29.4582V37.7123C23.0417 37.7123 32.2875 46.9582 32.2875 58.3332H40.5417C40.5417 42.379 27.6208 29.4582 11.6667 29.4582Z" fill="#CCCCCC"/>
</symbol>


<symbol viewBox="0 0 92 92"  fill="none" id='lamp'>
><path d="M37.523 64.1362H54.4731H37.523ZM45.9999 13.3549V16.9821V13.3549ZM69.0837 22.9163L66.5192 25.4807L69.0837 22.9163ZM78.6451 46H75.0178H78.6451ZM16.982 46H13.3547H16.982ZM25.4806 25.4807L22.9161 22.9163L25.4806 25.4807ZM33.174 58.8259C30.6381 56.2894 28.9112 53.0578 28.2118 49.5398C27.5124 46.0219 27.8719 42.3756 29.2447 39.0619C30.6175 35.7482 32.9421 32.916 35.9245 30.9234C38.9068 28.9307 42.4131 27.8672 45.9999 27.8672C49.5867 27.8672 53.093 28.9307 56.0753 30.9234C59.0577 32.916 61.3823 35.7482 62.7551 39.0619C64.1279 42.3756 64.4874 46.0219 63.788 49.5398C63.0886 53.0578 61.3617 56.2894 58.8258 58.8259L56.8381 60.81C55.7017 61.9466 54.8003 63.2959 54.1854 64.7809C53.5705 66.2659 53.2542 67.8574 53.2544 69.4646V71.3907C53.2544 73.3147 52.4901 75.1599 51.1296 76.5204C49.7691 77.8809 47.9239 78.6452 45.9999 78.6452C44.0759 78.6452 42.2307 77.8809 40.8702 76.5204C39.5097 75.1599 38.7454 73.3147 38.7454 71.3907V69.4646C38.7454 66.2183 37.4541 63.1025 35.1617 60.81L33.174 58.8259Z" stroke="#EC7979" stroke-width="6.83333" stroke-linecap="round" stroke-linejoin="round"/>
<circle cx="46" cy="46" r="45.5" stroke="#EC7979"/>
</symbol>
<symbol viewBox="0 0 92 92" fill="none" id='claw'>
<path d="M71.5731 23C73.5429 23 75.4319 23.7786 76.8247 25.1645C78.2175 26.5505 79 28.4302 79 30.3902V61.6098C79 63.5698 78.2175 65.4495 76.8247 66.8355C75.4319 68.2214 73.5429 69 71.5731 69H20.4269C19.4515 69 18.4858 68.8088 17.5847 68.4375C16.6837 68.0661 15.8649 67.5217 15.1753 66.8355C14.4856 66.1492 13.9386 65.3345 13.5653 64.4379C13.1921 63.5413 13 62.5803 13 61.6098V30.3902C13 28.4302 13.7825 26.5505 15.1753 25.1645C16.5681 23.7786 18.4571 23 20.4269 23H71.5731ZM71.5731 27.9268H20.4269C19.7703 27.9268 19.1406 28.1863 18.6763 28.6483C18.2121 29.1103 17.9512 29.7369 17.9512 30.3902V61.6098C17.9512 62.9696 19.0603 64.0732 20.4269 64.0732H71.5731C72.2297 64.0732 72.8594 63.8137 73.3237 63.3517C73.7879 62.8897 74.0488 62.2631 74.0488 61.6098V30.3902C74.0488 29.7369 73.7879 29.1103 73.3237 28.6483C72.8594 28.1863 72.2297 27.9268 71.5731 27.9268ZM28.6789 54.2031H63.3376C63.9648 54.2033 64.5686 54.4404 65.0269 54.8665C65.4852 55.2926 65.7639 55.876 65.8067 56.4986C65.8494 57.1213 65.6531 57.737 65.2572 58.2211C64.8614 58.7053 64.2956 59.0219 63.6743 59.107L63.3376 59.13H28.6789C28.0517 59.1298 27.4479 58.8927 26.9896 58.4666C26.5313 58.0405 26.2526 57.4571 26.2098 56.8345C26.1671 56.2118 26.3634 55.5961 26.7593 55.112C27.1551 54.6278 27.7209 54.3112 28.3422 54.2261L28.6789 54.2031H63.3376H28.6789ZM60.862 42.7072C61.7374 42.7072 62.577 43.0533 63.196 43.6693C63.815 44.2852 64.1628 45.1207 64.1628 45.9918C64.1628 46.8629 63.815 47.6983 63.196 48.3143C62.577 48.9303 61.7374 49.2763 60.862 49.2763C59.9865 49.2763 59.147 48.9303 58.5279 48.3143C57.9089 47.6983 57.5611 46.8629 57.5611 45.9918C57.5611 45.1207 57.9089 44.2852 58.5279 43.6693C59.147 43.0533 59.9865 42.7072 60.862 42.7072ZM41.0735 42.7072C41.949 42.7072 42.7885 43.0533 43.4076 43.6693C44.0266 44.2852 44.3743 45.1207 44.3743 45.9918C44.3743 46.8629 44.0266 47.6983 43.4076 48.3143C42.7885 48.9303 41.949 49.2763 41.0735 49.2763C40.1981 49.2763 39.3585 48.9303 38.7395 48.3143C38.1205 47.6983 37.7727 46.8629 37.7727 45.9918C37.7727 45.1207 38.1205 44.2852 38.7395 43.6693C39.3585 43.0533 40.1981 42.7072 41.0735 42.7072ZM31.171 42.7072C32.0465 42.7072 32.8861 43.0533 33.5051 43.6693C34.1241 44.2852 34.4719 45.1207 34.4719 45.9918C34.4719 46.8629 34.1241 47.6983 33.5051 48.3143C32.8861 48.9303 32.0465 49.2763 31.171 49.2763C30.2956 49.2763 29.456 48.9303 28.837 48.3143C28.218 47.6983 27.8702 46.8629 27.8702 45.9918C27.8702 45.1207 28.218 44.2852 28.837 43.6693C29.456 43.0533 30.2956 42.7072 31.171 42.7072ZM50.976 42.7072C51.8514 42.7072 52.691 43.0533 53.31 43.6693C53.9291 44.2852 54.2768 45.1207 54.2768 45.9918C54.2768 46.8629 53.9291 47.6983 53.31 48.3143C52.691 48.9303 51.8514 49.2763 50.976 49.2763C50.1006 49.2763 49.261 48.9303 48.642 48.3143C48.0229 47.6983 47.6752 46.8629 47.6752 45.9918C47.6752 45.1207 48.0229 44.2852 48.642 43.6693C49.261 43.0533 50.1006 42.7072 50.976 42.7072ZM26.2033 32.8536C27.0787 32.8536 27.9183 33.1997 28.5373 33.8156C29.1564 34.4316 29.5041 35.2671 29.5041 36.1382C29.5041 37.0093 29.1564 37.8447 28.5373 38.4607C27.9183 39.0767 27.0787 39.4227 26.2033 39.4227C25.3279 39.4227 24.4883 39.0767 23.8693 38.4607C23.2502 37.8447 22.9025 37.0093 22.9025 36.1382C22.9025 35.2671 23.2502 34.4316 23.8693 33.8156C24.4883 33.1997 25.3279 32.8536 26.2033 32.8536ZM36.0893 32.8536C36.9647 32.8536 37.8043 33.1997 38.4233 33.8156C39.0423 34.4316 39.3901 35.2671 39.3901 36.1382C39.3901 37.0093 39.0423 37.8447 38.4233 38.4607C37.8043 39.0767 36.9647 39.4227 36.0893 39.4227C35.2138 39.4227 34.3743 39.0767 33.7552 38.4607C33.1362 37.8447 32.7884 37.0093 32.7884 36.1382C32.7884 35.2671 33.1362 34.4316 33.7552 33.8156C34.3743 33.1997 35.2138 32.8536 36.0893 32.8536ZM45.9917 32.8536C46.8672 32.8536 47.7068 33.1997 48.3258 33.8156C48.9448 34.4316 49.2926 35.2671 49.2926 36.1382C49.2926 37.0093 48.9448 37.8447 48.3258 38.4607C47.7068 39.0767 46.8672 39.4227 45.9917 39.4227C45.1163 39.4227 44.2767 39.0767 43.6577 38.4607C43.0387 37.8447 42.6909 37.0093 42.6909 36.1382C42.6909 35.2671 43.0387 34.4316 43.6577 33.8156C44.2767 33.1997 45.1163 32.8536 45.9917 32.8536ZM55.8942 32.8536C56.7697 32.8536 57.6092 33.1997 58.2283 33.8156C58.8473 34.4316 59.195 35.2671 59.195 36.1382C59.195 37.0093 58.8473 37.8447 58.2283 38.4607C57.6092 39.0767 56.7697 39.4227 55.8942 39.4227C55.0188 39.4227 54.1792 39.0767 53.5602 38.4607C52.9412 37.8447 52.5934 37.0093 52.5934 36.1382C52.5934 35.2671 52.9412 34.4316 53.5602 33.8156C54.1792 33.1997 55.0188 32.8536 55.8942 32.8536ZM65.7967 32.8536C66.6721 32.8536 67.5117 33.1997 68.1307 33.8156C68.7498 34.4316 69.0975 35.2671 69.0975 36.1382C69.0975 37.0093 68.7498 37.8447 68.1307 38.4607C67.5117 39.0767 66.6721 39.4227 65.7967 39.4227C64.9213 39.4227 64.0817 39.0767 63.4627 38.4607C62.8436 37.8447 62.4959 37.0093 62.4959 36.1382C62.4959 35.2671 62.8436 34.4316 63.4627 33.8156C64.0817 33.1997 64.9213 32.8536 65.7967 32.8536Z" fill="#EC7979"/>
<circle cx="46" cy="46" r="45.5" stroke="#EC7979"/>
</symbol>
<symbol viewBox="39 39 92 92" fill="none" id='spi'>
<path d="M75.7308 117.811C75.2572 117.608 74.8637 117.249 74.6123 116.793C74.3608 116.336 74.2659 115.807 74.3423 115.289L78.5542 87.3575H67.3765C67.0221 87.3672 66.6703 87.2939 66.3482 87.1432C66.026 86.9925 65.7422 86.7684 65.5186 86.4882C65.2949 86.2081 65.1375 85.8793 65.0584 85.5274C64.9793 85.1754 64.9806 84.8096 65.0622 84.4583L72.0049 53.8158C72.1271 53.2885 72.4239 52.8201 72.8454 52.4895C73.2669 52.1589 73.7874 51.9864 74.3192 52.0008H97.4615C97.8072 51.9996 98.1488 52.0774 98.4612 52.2283C98.7735 52.3792 99.0488 52.5995 99.2666 52.873C99.4875 53.1495 99.6439 53.4735 99.724 53.8206C99.8042 54.1676 99.806 54.5287 99.7294 54.8765L95.7258 73.2149H106.718C107.152 73.214 107.577 73.3373 107.946 73.5706C108.314 73.804 108.61 74.1381 108.801 74.5348C108.967 74.9156 109.031 75.3343 108.986 75.7484C108.941 76.1624 108.79 76.557 108.547 76.892L78.4616 116.963C78.2583 117.27 77.9868 117.524 77.6692 117.704C77.3515 117.884 76.9967 117.986 76.6334 118C76.3237 117.994 76.0178 117.93 75.7308 117.811ZM89.9402 77.9291L94.5687 56.7151H76.1705L70.2924 82.6433H83.9695L80.2899 106.874L102.09 77.9291H89.9402Z" fill="#EC7979"/>
<circle cx="85" cy="85" r="45.5" stroke="#EC7979"/></symbol>


</svg>