<svg width="92" height="92" viewBox="0 0 92 92" fill="none" xmlns="http://www.w3.org/2000/svg">
<path d="M71.5731 23C73.5429 23 75.4319 23.7786 76.8247 25.1645C78.2175 26.5505 79 28.4302 79 30.3902V61.6098C79 63.5698 78.2175 65.4495 76.8247 66.8355C75.4319 68.2214 73.5429 69 71.5731 69H20.4269C19.4515 69 18.4858 68.8088 17.5847 68.4375C16.6837 68.0661 15.8649 67.5217 15.1753 66.8355C14.4856 66.1492 13.9386 65.3345 13.5653 64.4379C13.1921 63.5413 13 62.5803 13 61.6098V30.3902C13 28.4302 13.7825 26.5505 15.1753 25.1645C16.5681 23.7786 18.4571 23 20.4269 23H71.5731ZM71.5731 27.9268H20.4269C19.7703 27.9268 19.1406 28.1863 18.6763 28.6483C18.2121 29.1103 17.9512 29.7369 17.9512 30.3902V61.6098C17.9512 62.9696 19.0603 64.0732 20.4269 64.0732H71.5731C72.2297 64.0732 72.8594 63.8137 73.3237 63.3517C73.7879 62.8897 74.0488 62.2631 74.0488 61.6098V30.3902C74.0488 29.7369 73.7879 29.1103 73.3237 28.6483C72.8594 28.1863 72.2297 27.9268 71.5731 27.9268ZM28.6789 54.2031H63.3376C63.9648 54.2033 64.5686 54.4404 65.0269 54.8665C65.4852 55.2926 65.7639 55.876 65.8067 56.4986C65.8494 57.1213 65.6531 57.737 65.2572 58.2211C64.8614 58.7053 64.2956 59.0219 63.6743 59.107L63.3376 59.13H28.6789C28.0517 59.1298 27.4479 58.8927 26.9896 58.4666C26.5313 58.0405 26.2526 57.4571 26.2098 56.8345C26.1671 56.2118 26.3634 55.5961 26.7593 55.112C27.1551 54.6278 27.7209 54.3112 28.3422 54.2261L28.6789 54.2031H63.3376H28.6789ZM60.862 42.7072C61.7374 42.7072 62.577 43.0533 63.196 43.6693C63.815 44.2852 64.1628 45.1207 64.1628 45.9918C64.1628 46.8629 63.815 47.6983 63.196 48.3143C62.577 48.9303 61.7374 49.2763 60.862 49.2763C59.9865 49.2763 59.147 48.9303 58.5279 48.3143C57.9089 47.6983 57.5611 46.8629 57.5611 45.9918C57.5611 45.1207 57.9089 44.2852 58.5279 43.6693C59.147 43.0533 59.9865 42.7072 60.862 42.7072ZM41.0735 42.7072C41.949 42.7072 42.7885 43.0533 43.4076 43.6693C44.0266 44.2852 44.3743 45.1207 44.3743 45.9918C44.3743 46.8629 44.0266 47.6983 43.4076 48.3143C42.7885 48.9303 41.949 49.2763 41.0735 49.2763C40.1981 49.2763 39.3585 48.9303 38.7395 48.3143C38.1205 47.6983 37.7727 46.8629 37.7727 45.9918C37.7727 45.1207 38.1205 44.2852 38.7395 43.6693C39.3585 43.0533 40.1981 42.7072 41.0735 42.7072ZM31.171 42.7072C32.0465 42.7072 32.8861 43.0533 33.5051 43.6693C34.1241 44.2852 34.4719 45.1207 34.4719 45.9918C34.4719 46.8629 34.1241 47.6983 33.5051 48.3143C32.8861 48.9303 32.0465 49.2763 31.171 49.2763C30.2956 49.2763 29.456 48.9303 28.837 48.3143C28.218 47.6983 27.8702 46.8629 27.8702 45.9918C27.8702 45.1207 28.218 44.2852 28.837 43.6693C29.456 43.0533 30.2956 42.7072 31.171 42.7072ZM50.976 42.7072C51.8514 42.7072 52.691 43.0533 53.31 43.6693C53.9291 44.2852 54.2768 45.1207 54.2768 45.9918C54.2768 46.8629 53.9291 47.6983 53.31 48.3143C52.691 48.9303 51.8514 49.2763 50.976 49.2763C50.1006 49.2763 49.261 48.9303 48.642 48.3143C48.0229 47.6983 47.6752 46.8629 47.6752 45.9918C47.6752 45.1207 48.0229 44.2852 48.642 43.6693C49.261 43.0533 50.1006 42.7072 50.976 42.7072ZM26.2033 32.8536C27.0787 32.8536 27.9183 33.1997 28.5373 33.8156C29.1564 34.4316 29.5041 35.2671 29.5041 36.1382C29.5041 37.0093 29.1564 37.8447 28.5373 38.4607C27.9183 39.0767 27.0787 39.4227 26.2033 39.4227C25.3279 39.4227 24.4883 39.0767 23.8693 38.4607C23.2502 37.8447 22.9025 37.0093 22.9025 36.1382C22.9025 35.2671 23.2502 34.4316 23.8693 33.8156C24.4883 33.1997 25.3279 32.8536 26.2033 32.8536ZM36.0893 32.8536C36.9647 32.8536 37.8043 33.1997 38.4233 33.8156C39.0423 34.4316 39.3901 35.2671 39.3901 36.1382C39.3901 37.0093 39.0423 37.8447 38.4233 38.4607C37.8043 39.0767 36.9647 39.4227 36.0893 39.4227C35.2138 39.4227 34.3743 39.0767 33.7552 38.4607C33.1362 37.8447 32.7884 37.0093 32.7884 36.1382C32.7884 35.2671 33.1362 34.4316 33.7552 33.8156C34.3743 33.1997 35.2138 32.8536 36.0893 32.8536ZM45.9917 32.8536C46.8672 32.8536 47.7068 33.1997 48.3258 33.8156C48.9448 34.4316 49.2926 35.2671 49.2926 36.1382C49.2926 37.0093 48.9448 37.8447 48.3258 38.4607C47.7068 39.0767 46.8672 39.4227 45.9917 39.4227C45.1163 39.4227 44.2767 39.0767 43.6577 38.4607C43.0387 37.8447 42.6909 37.0093 42.6909 36.1382C42.6909 35.2671 43.0387 34.4316 43.6577 33.8156C44.2767 33.1997 45.1163 32.8536 45.9917 32.8536ZM55.8942 32.8536C56.7697 32.8536 57.6092 33.1997 58.2283 33.8156C58.8473 34.4316 59.195 35.2671 59.195 36.1382C59.195 37.0093 58.8473 37.8447 58.2283 38.4607C57.6092 39.0767 56.7697 39.4227 55.8942 39.4227C55.0188 39.4227 54.1792 39.0767 53.5602 38.4607C52.9412 37.8447 52.5934 37.0093 52.5934 36.1382C52.5934 35.2671 52.9412 34.4316 53.5602 33.8156C54.1792 33.1997 55.0188 32.8536 55.8942 32.8536ZM65.7967 32.8536C66.6721 32.8536 67.5117 33.1997 68.1307 33.8156C68.7498 34.4316 69.0975 35.2671 69.0975 36.1382C69.0975 37.0093 68.7498 37.8447 68.1307 38.4607C67.5117 39.0767 66.6721 39.4227 65.7967 39.4227C64.9213 39.4227 64.0817 39.0767 63.4627 38.4607C62.8436 37.8447 62.4959 37.0093 62.4959 36.1382C62.4959 35.2671 62.8436 34.4316 63.4627 33.8156C64.0817 33.1997 64.9213 32.8536 65.7967 32.8536Z" fill="#EC7979"/>
<circle cx="46" cy="46" r="45.5" stroke="#EC7979"/>
</svg>
