<svg width="92" height="92" viewBox="0 0 92 92" fill="none" xmlns="http://www.w3.org/2000/svg">
<mask id="path-1-inside-1_7258_338" fill="white">
<path d="M71.5733 23C73.543 23 75.432 23.7786 76.8248 25.1645C78.2176 26.5505 79.0001 28.4302 79.0001 30.3902V61.6098C79.0001 63.5698 78.2176 65.4495 76.8248 66.8355C75.432 68.2214 73.543 69 71.5733 69H20.427C19.4517 69 18.4859 68.8088 17.5848 68.4375C16.6838 68.0661 15.865 67.5217 15.1754 66.8355C14.4858 66.1492 13.9387 65.3345 13.5655 64.4379C13.1922 63.5413 13.0001 62.5803 13.0001 61.6098V30.3902C13.0001 28.4302 13.7826 26.5505 15.1754 25.1645C16.5682 23.7786 18.4573 23 20.427 23H71.5733ZM71.5733 27.9268H20.427C19.7704 27.9268 19.1407 28.1863 18.6765 28.6483C18.2122 29.1103 17.9514 29.7369 17.9514 30.3902V61.6098C17.9514 62.9696 19.0604 64.0732 20.427 64.0732H71.5733C72.2298 64.0732 72.8595 63.8137 73.3238 63.3517C73.7881 62.8897 74.0489 62.2631 74.0489 61.6098V30.3902C74.0489 29.7369 73.7881 29.1103 73.3238 28.6483C72.8595 28.1863 72.2298 27.9268 71.5733 27.9268ZM28.679 54.2031H63.3377C63.9649 54.2033 64.5687 54.4404 65.027 54.8665C65.4854 55.2926 65.7641 55.876 65.8068 56.4986C65.8496 57.1213 65.6532 57.737 65.2574 58.2211C64.8615 58.7053 64.2958 59.0219 63.6744 59.107L63.3377 59.13H28.679C28.0518 59.1298 27.448 58.8927 26.9897 58.4666C26.5314 58.0405 26.2527 57.4571 26.2099 56.8345C26.1672 56.2118 26.3636 55.5961 26.7594 55.112C27.1552 54.6278 27.721 54.3112 28.3424 54.2261L28.679 54.2031ZM60.8621 42.7072C61.7375 42.7072 62.5771 43.0533 63.1961 43.6693C63.8152 44.2852 64.1629 45.1207 64.1629 45.9918C64.1629 46.8629 63.8152 47.6983 63.1961 48.3143C62.5771 48.9303 61.7375 49.2763 60.8621 49.2763C59.9867 49.2763 59.1471 48.9303 58.528 48.3143C57.909 47.6983 57.5613 46.8629 57.5613 45.9918C57.5613 45.1207 57.909 44.2852 58.528 43.6693C59.1471 43.0533 59.9867 42.7072 60.8621 42.7072ZM41.0736 42.7072C41.9491 42.7072 42.7887 43.0533 43.4077 43.6693C44.0267 44.2852 44.3745 45.1207 44.3745 45.9918C44.3745 46.8629 44.0267 47.6983 43.4077 48.3143C42.7887 48.9303 41.9491 49.2763 41.0736 49.2763C40.1982 49.2763 39.3586 48.9303 38.7396 48.3143C38.1206 47.6983 37.7728 46.8629 37.7728 45.9918C37.7728 45.1207 38.1206 44.2852 38.7396 43.6693C39.3586 43.0533 40.1982 42.7072 41.0736 42.7072ZM31.1712 42.7072C32.0466 42.7072 32.8862 43.0533 33.5052 43.6693C34.1242 44.2852 34.472 45.1207 34.472 45.9918C34.472 46.8629 34.1242 47.6983 33.5052 48.3143C32.8862 48.9303 32.0466 49.2763 31.1712 49.2763C30.2957 49.2763 29.4562 48.9303 28.8371 48.3143C28.2181 47.6983 27.8703 46.8629 27.8703 45.9918C27.8703 45.1207 28.2181 44.2852 28.8371 43.6693C29.4562 43.0533 30.2957 42.7072 31.1712 42.7072ZM50.9761 42.7072C51.8515 42.7072 52.6911 43.0533 53.3102 43.6693C53.9292 44.2852 54.2769 45.1207 54.2769 45.9918C54.2769 46.8629 53.9292 47.6983 53.3102 48.3143C52.6911 48.9303 51.8515 49.2763 50.9761 49.2763C50.1007 49.2763 49.2611 48.9303 48.6421 48.3143C48.0231 47.6983 47.6753 46.8629 47.6753 45.9918C47.6753 45.1207 48.0231 44.2852 48.6421 43.6693C49.2611 43.0533 50.1007 42.7072 50.9761 42.7072ZM26.2034 32.8536C27.0789 32.8536 27.9184 33.1997 28.5375 33.8156C29.1565 34.4316 29.5042 35.267 29.5042 36.1382C29.5042 37.0093 29.1565 37.8447 28.5375 38.4607C27.9184 39.0767 27.0789 39.4227 26.2034 39.4227C25.328 39.4227 24.4884 39.0767 23.8694 38.4607C23.2504 37.8447 22.9026 37.0093 22.9026 36.1382C22.9026 35.267 23.2504 34.4316 23.8694 33.8156C24.4884 33.1997 25.328 32.8536 26.2034 32.8536ZM36.0894 32.8536C36.9648 32.8536 37.8044 33.1997 38.4234 33.8156C39.0425 34.4316 39.3902 35.267 39.3902 36.1382C39.3902 37.0093 39.0425 37.8447 38.4234 38.4607C37.8044 39.0767 36.9648 39.4227 36.0894 39.4227C35.214 39.4227 34.3744 39.0767 33.7554 38.4607C33.1363 37.8447 32.7886 37.0093 32.7886 36.1382C32.7886 35.267 33.1363 34.4316 33.7554 33.8156C34.3744 33.1997 35.214 32.8536 36.0894 32.8536ZM45.9919 32.8536C46.8673 32.8536 47.7069 33.1997 48.3259 33.8156C48.9449 34.4316 49.2927 35.267 49.2927 36.1382C49.2927 37.0093 48.9449 37.8447 48.3259 38.4607C47.7069 39.0767 46.8673 39.4227 45.9919 39.4227C45.1164 39.4227 44.2769 39.0767 43.6578 38.4607C43.0388 37.8447 42.691 37.0093 42.691 36.1382C42.691 35.267 43.0388 34.4316 43.6578 33.8156C44.2769 33.1997 45.1164 32.8536 45.9919 32.8536ZM55.8943 32.8536C56.7698 32.8536 57.6094 33.1997 58.2284 33.8156C58.8474 34.4316 59.1952 35.267 59.1952 36.1382C59.1952 37.0093 58.8474 37.8447 58.2284 38.4607C57.6094 39.0767 56.7698 39.4227 55.8943 39.4227C55.0189 39.4227 54.1793 39.0767 53.5603 38.4607C52.9413 37.8447 52.5935 37.0093 52.5935 36.1382C52.5935 35.267 52.9413 34.4316 53.5603 33.8156C54.1793 33.1997 55.0189 32.8536 55.8943 32.8536ZM65.7968 32.8536C66.6723 32.8536 67.5118 33.1997 68.1309 33.8156C68.7499 34.4316 69.0976 35.267 69.0976 36.1382C69.0976 37.0093 68.7499 37.8447 68.1309 38.4607C67.5118 39.0767 66.6723 39.4227 65.7968 39.4227C64.9214 39.4227 64.0818 39.0767 63.4628 38.4607C62.8438 37.8447 62.496 37.0093 62.496 36.1382C62.496 35.267 62.8438 34.4316 63.4628 33.8156C64.0818 33.1997 64.9214 32.8536 65.7968 32.8536Z"/>
<path d="M92.0001 46C92.0001 71.4051 71.4052 92 46.0001 92C20.595 92 0.00012207 71.4051 0.00012207 46C0.00012207 20.5949 20.595 0 46.0001 0C71.4052 0 92.0001 20.5949 92.0001 46Z"/>
</mask>
<path d="M71.5733 23V22V23ZM76.8248 25.1645L77.5302 24.4557L77.5302 24.4557L76.8248 25.1645ZM76.8248 66.8355L77.5302 67.5443L77.5302 67.5443L76.8248 66.8355ZM17.5848 68.4375L17.9659 67.5129L17.9659 67.5129L17.5848 68.4375ZM13.5655 64.4379L14.4887 64.0536L14.4887 64.0536L13.5655 64.4379ZM13.0001 30.3902H12.0001H13.0001ZM15.1754 25.1645L14.47 24.4557L15.1754 25.1645ZM18.6765 28.6483L19.3818 29.3572L18.6765 28.6483ZM73.3238 63.3517L72.6184 62.6428L72.6184 62.6428L73.3238 63.3517ZM73.3238 28.6483L72.6184 29.3572L72.6184 29.3572L73.3238 28.6483ZM28.679 54.2031V53.2031H28.6449L28.6109 53.2055L28.679 54.2031ZM63.3377 54.2031L63.338 53.2031H63.3377V54.2031ZM65.8068 56.4986L64.8092 56.5671L64.8092 56.5671L65.8068 56.4986ZM63.6744 59.107L63.7425 60.1046L63.7764 60.1023L63.81 60.0977L63.6744 59.107ZM63.3377 59.13V60.13H63.3718L63.4058 60.1276L63.3377 59.13ZM28.679 59.13L28.6787 60.13H28.679V59.13ZM26.9897 58.4666L26.3088 59.199L26.3088 59.199L26.9897 58.4666ZM26.7594 55.112L27.5336 55.7449L27.5336 55.7449L26.7594 55.112ZM28.3424 54.2261L28.2742 53.2285L28.2403 53.2308L28.2067 53.2354L28.3424 54.2261ZM63.1961 43.6693L62.4908 44.3781L62.4908 44.3781L63.1961 43.6693ZM58.528 48.3143L57.8227 49.0232L57.8227 49.0232L58.528 48.3143ZM58.528 43.6693L57.8227 42.9604L57.8227 42.9604L58.528 43.6693ZM43.4077 43.6693L42.7023 44.3781L42.7023 44.3781L43.4077 43.6693ZM43.4077 48.3143L42.7023 47.6055L42.7023 47.6055L43.4077 48.3143ZM38.7396 43.6693L39.445 44.3781L39.445 44.3781L38.7396 43.6693ZM33.5052 43.6693L32.7998 44.3781L32.7998 44.3781L33.5052 43.6693ZM33.5052 48.3143L32.7998 47.6055L32.7998 47.6055L33.5052 48.3143ZM28.8371 43.6693L29.5425 44.3781L29.5425 44.3781L28.8371 43.6693ZM53.3102 43.6693L52.6048 44.3781L52.6048 44.3781L53.3102 43.6693ZM48.6421 48.3143L47.9367 49.0232L47.9367 49.0232L48.6421 48.3143ZM48.6421 43.6693L47.9367 42.9604L47.9367 42.9604L48.6421 43.6693ZM28.5375 33.8156L29.2428 33.1068L28.5375 33.8156ZM28.5375 38.4607L27.8321 37.7518L27.8321 37.7518L28.5375 38.4607ZM23.8694 38.4607L24.5747 37.7518L24.5747 37.7518L23.8694 38.4607ZM23.8694 33.8156L23.164 33.1068L23.8694 33.8156ZM38.4234 33.8156L39.1288 33.1068L39.1288 33.1068L38.4234 33.8156ZM38.4234 38.4607L39.1288 39.1695L39.1288 39.1695L38.4234 38.4607ZM33.7554 38.4607L33.05 39.1695L33.05 39.1695L33.7554 38.4607ZM33.7554 33.8156L33.05 33.1068L33.05 33.1068L33.7554 33.8156ZM48.3259 33.8156L49.0313 33.1068L49.0313 33.1068L48.3259 33.8156ZM48.3259 38.4607L49.0313 39.1695L49.0313 39.1695L48.3259 38.4607ZM43.6578 38.4607L42.9525 39.1695L42.9525 39.1695L43.6578 38.4607ZM43.6578 33.8156L42.9525 33.1068L42.9525 33.1068L43.6578 33.8156ZM58.2284 33.8156L57.523 34.5245L57.523 34.5245L58.2284 33.8156ZM58.2284 38.4607L57.523 37.7518L57.523 37.7518L58.2284 38.4607ZM53.5603 38.4607L54.2657 37.7518L54.2657 37.7518L53.5603 38.4607ZM53.5603 33.8156L54.2657 34.5245L54.2657 34.5245L53.5603 33.8156ZM68.1309 33.8156L68.8362 33.1068L68.8362 33.1068L68.1309 33.8156ZM68.1309 38.4607L68.8362 39.1695L68.8362 39.1695L68.1309 38.4607ZM63.4628 33.8156L62.7574 33.1068L62.7574 33.1068L63.4628 33.8156ZM71.5733 24C73.2794 24 74.9146 24.6744 76.1195 25.8734L77.5302 24.4557C75.9495 22.8828 73.8066 22 71.5733 22V24ZM76.1195 25.8734C77.3242 27.0722 78.0001 28.697 78.0001 30.3902H80.0001C80.0001 28.1634 79.1111 26.0288 77.5302 24.4557L76.1195 25.8734ZM78.0001 30.3902V61.6098H80.0001V30.3902H78.0001ZM78.0001 61.6098C78.0001 63.303 77.3242 64.9278 76.1195 66.1266L77.5302 67.5443C79.1111 65.9712 80.0001 63.8366 80.0001 61.6098H78.0001ZM76.1195 66.1266C74.9146 67.3256 73.2794 68 71.5733 68V70C73.8066 70 75.9495 69.1172 77.5302 67.5443L76.1195 66.1266ZM71.5733 68H20.427V70H71.5733V68ZM20.427 68C19.5823 68 18.746 67.8344 17.9659 67.5129L17.2038 69.362C18.2258 69.7833 19.321 70 20.427 70V68ZM17.9659 67.5129C17.1858 67.1914 16.4773 66.7202 15.8808 66.1266L14.47 67.5443C15.2528 68.3232 16.1817 68.9408 17.2038 69.362L17.9659 67.5129ZM15.8808 66.1266C15.2842 65.533 14.8113 64.8285 14.4887 64.0536L12.6423 64.8222C13.0661 65.8405 13.6873 66.7654 14.47 67.5443L15.8808 66.1266ZM14.4887 64.0536C14.1661 63.2787 14.0001 62.4483 14.0001 61.6098H12.0001C12.0001 62.7123 12.2184 63.8039 12.6423 64.8222L14.4887 64.0536ZM14.0001 61.6098V30.3902H12.0001V61.6098H14.0001ZM14.0001 30.3902C14.0001 28.697 14.676 27.0722 15.8808 25.8734L14.47 24.4557C12.8892 26.0288 12.0001 28.1634 12.0001 30.3902L14.0001 30.3902ZM15.8808 25.8734C17.0856 24.6744 18.7209 24 20.427 24V22C18.1936 22 16.0508 22.8828 14.47 24.4557L15.8808 25.8734ZM20.427 24H71.5733V22H20.427V24ZM71.5733 26.9268H20.427V28.9268H71.5733V26.9268ZM20.427 26.9268C19.5068 26.9268 18.6233 27.2905 17.9711 27.9395L19.3818 29.3572C19.6582 29.0822 20.034 28.9268 20.427 28.9268V26.9268ZM17.9711 27.9395C17.3187 28.5886 16.9514 29.4701 16.9514 30.3902H18.9514C18.9514 30.0037 19.1056 29.632 19.3818 29.3572L17.9711 27.9395ZM16.9514 30.3902V61.6098H18.9514V30.3902H16.9514ZM16.9514 61.6098C16.9514 63.5265 18.5128 65.0732 20.427 65.0732V63.0732C19.6081 63.0732 18.9514 62.4126 18.9514 61.6098H16.9514ZM20.427 65.0732H71.5733V63.0732H20.427V65.0732ZM71.5733 65.0732C72.4935 65.0732 73.377 64.7095 74.0291 64.0605L72.6184 62.6428C72.3421 62.9178 71.9662 63.0732 71.5733 63.0732V65.0732ZM74.0291 64.0605C74.6815 63.4114 75.0489 62.5299 75.0489 61.6098H73.0489C73.0489 61.9963 72.8946 62.368 72.6184 62.6428L74.0291 64.0605ZM75.0489 61.6098V30.3902H73.0489V61.6098H75.0489ZM75.0489 30.3902C75.0489 29.4701 74.6815 28.5886 74.0291 27.9395L72.6184 29.3572C72.8946 29.632 73.0489 30.0037 73.0489 30.3902H75.0489ZM74.0291 27.9395C73.377 27.2905 72.4935 26.9268 71.5733 26.9268V28.9268C71.9662 28.9268 72.3421 29.0822 72.6184 29.3572L74.0291 27.9395ZM28.679 55.2031H63.3377V53.2031H28.679V55.2031ZM63.3374 55.2031C63.7128 55.2033 64.0732 55.3452 64.3461 55.5989L65.7079 54.1341C65.0642 53.5357 64.2171 53.2034 63.338 53.2031L63.3374 55.2031ZM64.3461 55.5989C64.6189 55.8525 64.7839 56.1987 64.8092 56.5671L66.8045 56.4302C66.7443 55.5532 66.3518 54.7327 65.7079 54.1341L64.3461 55.5989ZM64.8092 56.5671C64.8345 56.9356 64.7184 57.3005 64.4832 57.5882L66.0316 58.8541C66.588 58.1734 66.8647 57.3071 66.8045 56.4302L64.8092 56.5671ZM64.4832 57.5882C64.2478 57.876 63.9105 58.0653 63.5387 58.1162L63.81 60.0977C64.681 59.9785 65.4752 59.5345 66.0316 58.8541L64.4832 57.5882ZM63.6063 58.1093L63.2696 58.1323L63.4058 60.1276L63.7425 60.1046L63.6063 58.1093ZM63.3377 58.13H28.679V60.13H63.3377V58.13ZM28.6793 58.13C28.304 58.1298 27.9435 57.9879 27.6706 57.7342L26.3088 59.199C26.9525 59.7974 27.7996 60.1297 28.6787 60.13L28.6793 58.13ZM27.6706 57.7342C27.3978 57.4806 27.2329 57.1344 27.2076 56.766L25.2123 56.9029C25.2725 57.7799 25.6649 58.6003 26.3088 59.199L27.6706 57.7342ZM27.2076 56.766C27.1823 56.3975 27.2984 56.0326 27.5336 55.7449L25.9852 54.479C25.4287 55.1597 25.1521 56.026 25.2123 56.9029L27.2076 56.766ZM27.5336 55.7449C27.7689 55.4571 28.1062 55.2678 28.478 55.2169L28.2067 53.2354C27.3357 53.3546 26.5415 53.7986 25.9852 54.479L27.5336 55.7449ZM28.4105 55.2238L28.7472 55.2008L28.6109 53.2055L28.2742 53.2285L28.4105 55.2238ZM60.8621 43.7072C61.4739 43.7072 62.0597 43.9491 62.4908 44.3781L63.9015 42.9604C63.0945 42.1575 62.0011 41.7072 60.8621 41.7072V43.7072ZM62.4908 44.3781C62.9217 44.8069 63.1629 45.3875 63.1629 45.9918H65.1629C65.1629 44.8539 64.7086 43.7635 63.9015 42.9604L62.4908 44.3781ZM63.1629 45.9918C63.1629 46.5961 62.9217 47.1766 62.4908 47.6055L63.9015 49.0232C64.7086 48.22 65.1629 47.1297 65.1629 45.9918H63.1629ZM62.4908 47.6055C62.0597 48.0344 61.4739 48.2763 60.8621 48.2763V50.2763C62.0011 50.2763 63.0945 49.8261 63.9015 49.0232L62.4908 47.6055ZM60.8621 48.2763C60.2503 48.2763 59.6645 48.0344 59.2334 47.6055L57.8227 49.0232C58.6296 49.8261 59.723 50.2763 60.8621 50.2763V48.2763ZM59.2334 47.6055C58.8025 47.1766 58.5613 46.5961 58.5613 45.9918H56.5613C56.5613 47.1297 57.0156 48.22 57.8227 49.0232L59.2334 47.6055ZM58.5613 45.9918C58.5613 45.3875 58.8025 44.8069 59.2334 44.3781L57.8227 42.9604C57.0156 43.7635 56.5613 44.8539 56.5613 45.9918H58.5613ZM59.2334 44.3781C59.6645 43.9491 60.2503 43.7072 60.8621 43.7072V41.7072C59.723 41.7072 58.6296 42.1575 57.8227 42.9604L59.2334 44.3781ZM41.0736 43.7072C41.6854 43.7072 42.2712 43.9491 42.7023 44.3781L44.113 42.9604C43.3061 42.1575 42.2127 41.7072 41.0736 41.7072V43.7072ZM42.7023 44.3781C43.1333 44.8069 43.3745 45.3875 43.3745 45.9918H45.3745C45.3745 44.8539 44.9201 43.7635 44.113 42.9604L42.7023 44.3781ZM43.3745 45.9918C43.3745 46.5961 43.1333 47.1766 42.7023 47.6055L44.113 49.0232C44.9201 48.22 45.3745 47.1297 45.3745 45.9918H43.3745ZM42.7023 47.6055C42.2712 48.0344 41.6854 48.2763 41.0736 48.2763V50.2763C42.2127 50.2763 43.3061 49.8261 44.113 49.0232L42.7023 47.6055ZM41.0736 48.2763C40.4618 48.2763 39.8761 48.0344 39.445 47.6055L38.0342 49.0232C38.8412 49.8261 39.9346 50.2763 41.0736 50.2763V48.2763ZM39.445 47.6055C39.014 47.1766 38.7728 46.5961 38.7728 45.9918H36.7728C36.7728 47.1297 37.2271 48.22 38.0342 49.0232L39.445 47.6055ZM38.7728 45.9918C38.7728 45.3875 39.014 44.8069 39.445 44.3781L38.0342 42.9604C37.2271 43.7635 36.7728 44.8539 36.7728 45.9918H38.7728ZM39.445 44.3781C39.8761 43.9491 40.4618 43.7072 41.0736 43.7072V41.7072C39.9346 41.7072 38.8412 42.1575 38.0342 42.9604L39.445 44.3781ZM31.1712 43.7072C31.783 43.7072 32.3687 43.9491 32.7998 44.3781L34.2106 42.9604C33.4036 42.1575 32.3102 41.7072 31.1712 41.7072V43.7072ZM32.7998 44.3781C33.2308 44.8069 33.472 45.3875 33.472 45.9918H35.472C35.472 44.8539 35.0177 43.7635 34.2106 42.9604L32.7998 44.3781ZM33.472 45.9918C33.472 46.5961 33.2308 47.1766 32.7998 47.6055L34.2106 49.0232C35.0177 48.22 35.472 47.1297 35.472 45.9918H33.472ZM32.7998 47.6055C32.3687 48.0344 31.783 48.2763 31.1712 48.2763V50.2763C32.3102 50.2763 33.4036 49.8261 34.2106 49.0232L32.7998 47.6055ZM31.1712 48.2763C30.5594 48.2763 29.9736 48.0344 29.5425 47.6055L28.1318 49.0232C28.9387 49.8261 30.0321 50.2763 31.1712 50.2763V48.2763ZM29.5425 47.6055C29.1115 47.1766 28.8703 46.5961 28.8703 45.9918H26.8703C26.8703 47.1297 27.3247 48.22 28.1318 49.0232L29.5425 47.6055ZM28.8703 45.9918C28.8703 45.3875 29.1115 44.8069 29.5425 44.3781L28.1318 42.9604C27.3247 43.7635 26.8703 44.8539 26.8703 45.9918H28.8703ZM29.5425 44.3781C29.9736 43.9491 30.5594 43.7072 31.1712 43.7072V41.7072C30.0321 41.7072 28.9387 42.1575 28.1318 42.9604L29.5425 44.3781ZM50.9761 43.7072C51.5879 43.7072 52.1737 43.9491 52.6048 44.3781L54.0155 42.9604C53.2086 42.1575 52.1152 41.7072 50.9761 41.7072V43.7072ZM52.6048 44.3781C53.0357 44.8069 53.2769 45.3875 53.2769 45.9918H55.2769C55.2769 44.8539 54.8226 43.7635 54.0155 42.9604L52.6048 44.3781ZM53.2769 45.9918C53.2769 46.5961 53.0357 47.1766 52.6048 47.6055L54.0155 49.0232C54.8226 48.22 55.2769 47.1297 55.2769 45.9918H53.2769ZM52.6048 47.6055C52.1737 48.0344 51.5879 48.2763 50.9761 48.2763V50.2763C52.1152 50.2763 53.2086 49.8261 54.0155 49.0232L52.6048 47.6055ZM50.9761 48.2763C50.3643 48.2763 49.7785 48.0344 49.3474 47.6055L47.9367 49.0232C48.7437 49.8261 49.8371 50.2763 50.9761 50.2763V48.2763ZM49.3474 47.6055C48.9165 47.1766 48.6753 46.5961 48.6753 45.9918H46.6753C46.6753 47.1297 47.1296 48.22 47.9367 49.0232L49.3474 47.6055ZM48.6753 45.9918C48.6753 45.3875 48.9165 44.8069 49.3474 44.3781L47.9367 42.9604C47.1296 43.7635 46.6753 44.8539 46.6753 45.9918H48.6753ZM49.3474 44.3781C49.7785 43.9491 50.3643 43.7072 50.9761 43.7072V41.7072C49.8371 41.7072 48.7437 42.1575 47.9367 42.9604L49.3474 44.3781ZM26.2034 33.8536C26.8152 33.8536 27.401 34.0955 27.8321 34.5245L29.2428 33.1068C28.4359 32.3038 27.3425 31.8536 26.2034 31.8536V33.8536ZM27.8321 34.5245C28.263 34.9533 28.5042 35.5339 28.5042 36.1382H30.5042C30.5042 35.0002 30.0499 33.9099 29.2428 33.1068L27.8321 34.5245ZM28.5042 36.1382C28.5042 36.7425 28.263 37.323 27.8321 37.7518L29.2428 39.1695C30.0499 38.3664 30.5042 37.2761 30.5042 36.1382H28.5042ZM27.8321 37.7518C27.401 38.1808 26.8152 38.4227 26.2034 38.4227V40.4227C27.3425 40.4227 28.4359 39.9725 29.2428 39.1695L27.8321 37.7518ZM26.2034 38.4227C25.5916 38.4227 25.0059 38.1808 24.5747 37.7518L23.164 39.1695C23.971 39.9725 25.0644 40.4227 26.2034 40.4227V38.4227ZM24.5747 37.7518C24.1438 37.323 23.9026 36.7425 23.9026 36.1382H21.9026C21.9026 37.2761 22.3569 38.3664 23.164 39.1695L24.5747 37.7518ZM23.9026 36.1382C23.9026 35.5339 24.1438 34.9533 24.5747 34.5245L23.164 33.1068C22.3569 33.9099 21.9026 35.0002 21.9026 36.1382H23.9026ZM24.5747 34.5245C25.0059 34.0955 25.5916 33.8536 26.2034 33.8536V31.8536C25.0644 31.8536 23.971 32.3038 23.164 33.1068L24.5747 34.5245ZM36.0894 33.8536C36.7012 33.8536 37.287 34.0955 37.7181 34.5245L39.1288 33.1068C38.3218 32.3038 37.2285 31.8536 36.0894 31.8536V33.8536ZM37.7181 34.5245C38.149 34.9533 38.3902 35.5339 38.3902 36.1382H40.3902C40.3902 35.0002 39.9359 33.9099 39.1288 33.1068L37.7181 34.5245ZM38.3902 36.1382C38.3902 36.7425 38.149 37.323 37.7181 37.7518L39.1288 39.1695C39.9359 38.3664 40.3902 37.2761 40.3902 36.1382H38.3902ZM37.7181 37.7518C37.287 38.1808 36.7012 38.4227 36.0894 38.4227V40.4227C37.2285 40.4227 38.3218 39.9725 39.1288 39.1695L37.7181 37.7518ZM36.0894 38.4227C35.4776 38.4227 34.8918 38.1808 34.4607 37.7518L33.05 39.1695C33.8569 39.9725 34.9503 40.4227 36.0894 40.4227V38.4227ZM34.4607 37.7518C34.0298 37.323 33.7886 36.7425 33.7886 36.1382H31.7886C31.7886 37.2761 32.2429 38.3664 33.05 39.1695L34.4607 37.7518ZM33.7886 36.1382C33.7886 35.5339 34.0298 34.9533 34.4607 34.5245L33.05 33.1068C32.2429 33.9099 31.7886 35.0002 31.7886 36.1382H33.7886ZM34.4607 34.5245C34.8918 34.0955 35.4776 33.8536 36.0894 33.8536V31.8536C34.9503 31.8536 33.8569 32.3038 33.05 33.1068L34.4607 34.5245ZM45.9919 33.8536C46.6037 33.8536 47.1894 34.0955 47.6205 34.5245L49.0313 33.1068C48.2243 32.3038 47.1309 31.8536 45.9919 31.8536V33.8536ZM47.6205 34.5245C48.0515 34.9533 48.2927 35.5339 48.2927 36.1382H50.2927C50.2927 35.0002 49.8384 33.9099 49.0313 33.1068L47.6205 34.5245ZM48.2927 36.1382C48.2927 36.7425 48.0515 37.323 47.6205 37.7518L49.0313 39.1695C49.8384 38.3664 50.2927 37.2761 50.2927 36.1382H48.2927ZM47.6205 37.7518C47.1894 38.1808 46.6037 38.4227 45.9919 38.4227V40.4227C47.1309 40.4227 48.2243 39.9725 49.0313 39.1695L47.6205 37.7518ZM45.9919 38.4227C45.3801 38.4227 44.7943 38.1808 44.3632 37.7518L42.9525 39.1695C43.7594 39.9725 44.8528 40.4227 45.9919 40.4227V38.4227ZM44.3632 37.7518C43.9322 37.323 43.691 36.7425 43.691 36.1382H41.691C41.691 37.2761 42.1454 38.3664 42.9525 39.1695L44.3632 37.7518ZM43.691 36.1382C43.691 35.5339 43.9322 34.9533 44.3632 34.5245L42.9525 33.1068C42.1454 33.9099 41.691 35.0002 41.691 36.1382H43.691ZM44.3632 34.5245C44.7943 34.0955 45.3801 33.8536 45.9919 33.8536V31.8536C44.8528 31.8536 43.7594 32.3038 42.9525 33.1068L44.3632 34.5245ZM55.8943 33.8536C56.5062 33.8536 57.0919 34.0955 57.523 34.5245L58.9337 33.1068C58.1268 32.3038 57.0334 31.8536 55.8943 31.8536V33.8536ZM57.523 34.5245C57.954 34.9533 58.1952 35.5339 58.1952 36.1382H60.1952C60.1952 35.0002 59.7408 33.9099 58.9337 33.1068L57.523 34.5245ZM58.1952 36.1382C58.1952 36.7425 57.954 37.323 57.523 37.7518L58.9337 39.1695C59.7408 38.3664 60.1952 37.2761 60.1952 36.1382H58.1952ZM57.523 37.7518C57.0919 38.1808 56.5062 38.4227 55.8943 38.4227V40.4227C57.0334 40.4227 58.1268 39.9725 58.9337 39.1695L57.523 37.7518ZM55.8943 38.4227C55.2825 38.4227 54.6968 38.1808 54.2657 37.7518L52.855 39.1695C53.6619 39.9725 54.7553 40.4227 55.8943 40.4227V38.4227ZM54.2657 37.7518C53.8347 37.323 53.5935 36.7425 53.5935 36.1382H51.5935C51.5935 37.2761 52.0479 38.3664 52.855 39.1695L54.2657 37.7518ZM53.5935 36.1382C53.5935 35.5339 53.8347 34.9533 54.2657 34.5245L52.855 33.1068C52.0479 33.9099 51.5935 35.0002 51.5935 36.1382H53.5935ZM54.2657 34.5245C54.6968 34.0955 55.2825 33.8536 55.8943 33.8536V31.8536C54.7553 31.8536 53.6619 32.3038 52.855 33.1068L54.2657 34.5245ZM65.7968 33.8536C66.4086 33.8536 66.9944 34.0955 67.4255 34.5245L68.8362 33.1068C68.0293 32.3038 66.9359 31.8536 65.7968 31.8536V33.8536ZM67.4255 34.5245C67.8564 34.9533 68.0976 35.5339 68.0976 36.1382H70.0976C70.0976 35.0002 69.6433 33.9099 68.8362 33.1068L67.4255 34.5245ZM68.0976 36.1382C68.0976 36.7425 67.8564 37.323 67.4255 37.7518L68.8362 39.1695C69.6433 38.3664 70.0976 37.2761 70.0976 36.1382H68.0976ZM67.4255 37.7518C66.9944 38.1808 66.4086 38.4227 65.7968 38.4227V40.4227C66.9359 40.4227 68.0293 39.9725 68.8362 39.1695L67.4255 37.7518ZM65.7968 38.4227C65.185 38.4227 64.5993 38.1808 64.1681 37.7518L62.7574 39.1695C63.5644 39.9725 64.6578 40.4227 65.7968 40.4227V38.4227ZM64.1681 37.7518C63.7372 37.323 63.496 36.7425 63.496 36.1382H61.496C61.496 37.2761 61.9503 38.3664 62.7574 39.1695L64.1681 37.7518ZM63.496 36.1382C63.496 35.5339 63.7372 34.9533 64.1681 34.5245L62.7574 33.1068C61.9503 33.9099 61.496 35.0002 61.496 36.1382H63.496ZM64.1681 34.5245C64.5993 34.0955 65.185 33.8536 65.7968 33.8536V31.8536C64.6578 31.8536 63.5644 32.3038 62.7574 33.1068L64.1681 34.5245ZM91.0001 46C91.0001 70.8528 70.8529 91 46.0001 91V93C71.9575 93 93.0001 71.9574 93.0001 46H91.0001ZM46.0001 91C21.1473 91 1.00012 70.8528 1.00012 46H-0.999878C-0.999878 71.9574 20.0427 93 46.0001 93V91ZM1.00012 46C1.00012 21.1472 21.1473 1 46.0001 1V-1C20.0427 -1 -0.999878 20.0426 -0.999878 46H1.00012ZM46.0001 1C70.8529 1 91.0001 21.1472 91.0001 46H93.0001C93.0001 20.0426 71.9575 -1 46.0001 -1V1Z" fill="#EC7979" mask="url(#path-1-inside-1_7258_338)"/>
</svg>
