<svg width="92" height="92" viewBox="0 0 92 92" fill="none" xmlns="http://www.w3.org/2000/svg">
<path d="M37.523 64.1362H54.4731H37.523ZM45.9999 13.3549V16.9821V13.3549ZM69.0837 22.9163L66.5192 25.4807L69.0837 22.9163ZM78.6451 46H75.0178H78.6451ZM16.982 46H13.3547H16.982ZM25.4806 25.4807L22.9161 22.9163L25.4806 25.4807ZM33.174 58.8259C30.6381 56.2894 28.9112 53.0578 28.2118 49.5398C27.5124 46.0219 27.8719 42.3756 29.2447 39.0619C30.6175 35.7482 32.9421 32.916 35.9245 30.9234C38.9068 28.9307 42.4131 27.8672 45.9999 27.8672C49.5867 27.8672 53.093 28.9307 56.0753 30.9234C59.0577 32.916 61.3823 35.7482 62.7551 39.0619C64.1279 42.3756 64.4874 46.0219 63.788 49.5398C63.0886 53.0578 61.3617 56.2894 58.8258 58.8259L56.8381 60.81C55.7017 61.9466 54.8003 63.2959 54.1854 64.7809C53.5705 66.2659 53.2542 67.8574 53.2544 69.4646V71.3907C53.2544 73.3147 52.4901 75.1599 51.1296 76.5204C49.7691 77.8809 47.9239 78.6452 45.9999 78.6452C44.0759 78.6452 42.2307 77.8809 40.8702 76.5204C39.5097 75.1599 38.7454 73.3147 38.7454 71.3907V69.4646C38.7454 66.2183 37.4541 63.1025 35.1617 60.81L33.174 58.8259Z" stroke="#EC7979" stroke-width="6.83333" stroke-linecap="round" stroke-linejoin="round"/>
<circle cx="46" cy="46" r="45.5" stroke="#EC7979"/>
</svg>
