<svg width="92" height="92" viewBox="0 0 92 92" fill="none" xmlns="http://www.w3.org/2000/svg">
<mask id="path-1-inside-1_7266_343" fill="white">
<path d="M33.1741 58.8259C30.6382 56.2893 28.9113 53.0578 28.2119 49.5398C27.5125 46.0219 27.872 42.3755 29.2448 39.0619C30.6176 35.7482 32.9422 32.916 35.9246 30.9233C38.9069 28.9307 42.4132 27.8672 46 27.8672C49.5868 27.8672 53.0931 28.9307 56.0754 30.9233C59.0578 32.916 61.3824 35.7482 62.7552 39.0619C64.128 42.3755 64.4875 46.0219 63.7881 49.5398C63.0887 53.0578 61.3618 56.2893 58.8259 58.8259L56.8382 60.81C55.7018 61.9466 54.8004 63.2959 54.1855 64.7809C53.5706 66.2658 53.2543 67.8574 53.2545 69.4646V71.3907C53.2545 73.3147 52.4902 75.1599 51.1297 76.5204C49.7692 77.8808 47.924 78.6452 46 78.6452C44.076 78.6452 42.2308 77.8808 40.8703 76.5204C39.5098 75.1599 38.7455 73.3147 38.7455 71.3907V69.4646C38.7455 66.2182 37.4542 63.1024 35.1618 60.81L33.1741 58.8259Z"/>
<path d="M92 46C92 71.4051 71.4051 92 46 92C20.5949 92 0 71.4051 0 46C0 20.5949 20.5949 0 46 0C71.4051 0 92 20.5949 92 46Z"/>
</mask>
<path d="M37.5231 63.6362C37.247 63.6362 37.0231 63.8601 37.0231 64.1362C37.0231 64.4123 37.247 64.6362 37.5231 64.6362V63.6362ZM54.4732 64.6362C54.7494 64.6362 54.9732 64.4123 54.9732 64.1362C54.9732 63.8601 54.7494 63.6362 54.4732 63.6362V64.6362ZM46.5 13.3548C46.5 13.0787 46.2761 12.8548 46 12.8548C45.7239 12.8548 45.5 13.0787 45.5 13.3548H46.5ZM45.5 16.9821C45.5 17.2582 45.7239 17.4821 46 17.4821C46.2761 17.4821 46.5 17.2582 46.5 16.9821H45.5ZM69.4373 23.2698C69.6326 23.0745 69.6326 22.758 69.4373 22.5627C69.242 22.3674 68.9255 22.3674 68.7302 22.5627L69.4373 23.2698ZM66.1657 25.1271C65.9705 25.3224 65.9705 25.639 66.1657 25.8343C66.361 26.0295 66.6776 26.0295 66.8728 25.8343L66.1657 25.1271ZM78.6452 46.5C78.9213 46.5 79.1452 46.2761 79.1452 46C79.1452 45.7239 78.9213 45.5 78.6452 45.5V46.5ZM75.0179 45.5C74.7418 45.5 74.5179 45.7239 74.5179 46C74.5179 46.2761 74.7418 46.5 75.0179 46.5V45.5ZM16.9821 46.5C17.2582 46.5 17.4821 46.2761 17.4821 46C17.4821 45.7239 17.2582 45.5 16.9821 45.5V46.5ZM13.3548 45.5C13.0787 45.5 12.8548 45.7239 12.8548 46C12.8548 46.2761 13.0787 46.5 13.3548 46.5V45.5ZM25.1271 25.8343C25.3224 26.0295 25.639 26.0295 25.8343 25.8343C26.0295 25.639 26.0295 25.3224 25.8343 25.1271L25.1271 25.8343ZM23.2698 22.5627C23.0745 22.3674 22.758 22.3674 22.5627 22.5627C22.3674 22.758 22.3674 23.0745 22.5627 23.2698L23.2698 22.5627ZM37.5231 64.6362H54.4732V63.6362H37.5231V64.6362ZM45.5 13.3548V16.9821H46.5V13.3548H45.5ZM68.7302 22.5627L66.1657 25.1271L66.8728 25.8343L69.4373 23.2698L68.7302 22.5627ZM78.6452 45.5H75.0179V46.5H78.6452V45.5ZM16.9821 45.5H13.3548V46.5H16.9821V45.5ZM25.8343 25.1271L23.2698 22.5627L22.5627 23.2698L25.1271 25.8343L25.8343 25.1271ZM33.1741 58.8259L32.4669 59.5329L32.4676 59.5337L33.1741 58.8259ZM58.8259 58.8259L59.5324 59.5337L59.5331 59.5329L58.8259 58.8259ZM56.8382 60.81L56.1317 60.1023L56.131 60.103L56.8382 60.81ZM53.2545 69.4646L54.2545 69.4646L54.2545 69.4645L53.2545 69.4646ZM35.1618 60.81L35.8689 60.1029L35.8683 60.1023L35.1618 60.81ZM33.8813 58.1189C31.4852 55.7222 29.8536 52.6688 29.1927 49.3448L27.2311 49.7348C27.9691 53.4467 29.7911 56.8565 32.4669 59.5329L33.8813 58.1189ZM29.1927 49.3448C28.5319 46.0209 28.8715 42.5756 30.1686 39.4446L28.3209 38.6791C26.8724 42.1755 26.4932 46.0229 27.2311 49.7348L29.1927 49.3448ZM30.1686 39.4446C31.4658 36.3136 33.6622 33.6376 36.4801 31.7548L35.369 30.0919C32.2222 32.1944 29.7695 35.1827 28.3209 38.6791L30.1686 39.4446ZM36.4801 31.7548C39.298 29.8721 42.611 28.8672 46 28.8672V26.8672C42.2154 26.8672 38.5158 27.9894 35.369 30.0919L36.4801 31.7548ZM46 28.8672C49.389 28.8672 52.702 29.8721 55.5199 31.7548L56.631 30.0919C53.4842 27.9894 49.7846 26.8672 46 26.8672V28.8672ZM55.5199 31.7548C58.3378 33.6376 60.5342 36.3136 61.8314 39.4446L63.6791 38.6791C62.2305 35.1827 59.7778 32.1944 56.631 30.0919L55.5199 31.7548ZM61.8314 39.4446C63.1285 42.5756 63.4681 46.0209 62.8073 49.3448L64.7689 49.7348C65.5068 46.0229 65.1276 42.1755 63.6791 38.6791L61.8314 39.4446ZM62.8073 49.3448C62.1464 52.6688 60.5148 55.7222 58.1187 58.1189L59.5331 59.5329C62.2089 56.8565 64.0309 53.4467 64.7689 49.7348L62.8073 49.3448ZM58.1195 58.1182L56.1317 60.1023L57.5447 61.5178L59.5324 59.5337L58.1195 58.1182ZM56.131 60.103C54.9018 61.3324 53.9268 62.792 53.2616 64.3983L55.1095 65.1635C55.6741 63.7998 56.5018 62.5608 57.5454 61.5171L56.131 60.103ZM53.2616 64.3983C52.5965 66.0046 52.2543 67.7262 52.2545 69.4647L54.2545 69.4645C54.2543 67.9886 54.5448 66.5271 55.1095 65.1635L53.2616 64.3983ZM52.2545 69.4646V71.3907H54.2545V69.4646H52.2545ZM52.2545 71.3907C52.2545 73.0495 51.5955 74.6403 50.4226 75.8133L51.8368 77.2275C53.3848 75.6795 54.2545 73.5799 54.2545 71.3907H52.2545ZM50.4226 75.8133C49.2496 76.9862 47.6588 77.6452 46 77.6452V79.6452C48.1892 79.6452 50.2888 78.7755 51.8368 77.2275L50.4226 75.8133ZM46 77.6452C44.3412 77.6452 42.7504 76.9862 41.5774 75.8133L40.1632 77.2275C41.7112 78.7755 43.8108 79.6452 46 79.6452V77.6452ZM41.5774 75.8133C40.4045 74.6403 39.7455 73.0495 39.7455 71.3907H37.7455C37.7455 73.5799 38.6152 75.6795 40.1632 77.2275L41.5774 75.8133ZM39.7455 71.3907V69.4646H37.7455V71.3907H39.7455ZM39.7455 69.4646C39.7455 65.9531 38.3489 62.5829 35.8689 60.1029L34.4547 61.5171C36.5595 63.622 37.7455 66.4834 37.7455 69.4646H39.7455ZM35.8683 60.1023L33.8805 58.1182L32.4676 59.5337L34.4553 61.5178L35.8683 60.1023ZM91 46C91 70.8528 70.8528 91 46 91V93C71.9574 93 93 71.9574 93 46H91ZM46 91C21.1472 91 1 70.8528 1 46H-1C-1 71.9574 20.0426 93 46 93V91ZM1 46C1 21.1472 21.1472 1 46 1V-1C20.0426 -1 -1 20.0426 -1 46H1ZM46 1C70.8528 1 91 21.1472 91 46H93C93 20.0426 71.9574 -1 46 -1V1Z" fill="#EC7979" mask="url(#path-1-inside-1_7266_343)"/>
</svg>
