<svg width="92" height="92" viewBox="0 0 92 92" fill="none" xmlns="http://www.w3.org/2000/svg">
<mask id="path-1-inside-1_7258_339" fill="white">
<path d="M36.7308 78.8114C36.2572 78.6078 35.8637 78.2494 35.6123 77.7927C35.3608 77.336 35.2659 76.8071 35.3423 76.2893L39.5542 48.3575H28.3765C28.0221 48.3672 27.6703 48.2939 27.3482 48.1432C27.026 47.9925 26.7422 47.7684 26.5186 47.4882C26.2949 47.2081 26.1375 46.8793 26.0584 46.5274C25.9793 46.1754 25.9806 45.8096 26.0622 45.4583L33.0049 14.8158C33.1271 14.2885 33.4239 13.8201 33.8454 13.4895C34.2669 13.1589 34.7874 12.9864 35.3192 13.0008H58.4615C58.8072 12.9996 59.1488 13.0774 59.4612 13.2283C59.7735 13.3792 60.0488 13.5995 60.2666 13.873C60.4875 14.1495 60.6439 14.4735 60.724 14.8206C60.8042 15.1676 60.806 15.5287 60.7294 15.8765L56.7258 34.2149H67.7184C68.1521 34.214 68.5774 34.3373 68.9456 34.5706C69.3139 34.804 69.6104 35.1381 69.8012 35.5348C69.967 35.9156 70.0309 36.3343 69.9861 36.7484C69.9414 37.1624 69.7898 37.557 69.5466 37.892L39.4616 77.9629C39.2583 78.2699 38.9868 78.5238 38.6692 78.7039C38.3515 78.8841 37.9967 78.9856 37.6334 79C37.3237 78.9941 37.0178 78.9302 36.7308 78.8114ZM50.9402 38.9291L55.5687 17.7151H37.1705L31.2924 43.6433H44.9695L41.2899 67.8744L63.0899 38.9291H50.9402Z"/>
<path d="M92 46C92 71.4051 71.4051 92 46 92C20.5949 92 0 71.4051 0 46C0 20.5949 20.5949 0 46 0C71.4051 0 92 20.5949 92 46Z"/>
</mask>
<path d="M36.7308 78.8114L36.3358 79.7302L36.3484 79.7354L36.7308 78.8114ZM35.6123 77.7927L34.7363 78.275L34.7363 78.275L35.6123 77.7927ZM35.3423 76.2893L34.3535 76.1402L34.353 76.1433L35.3423 76.2893ZM39.5542 48.3575L40.543 48.5066L40.7163 47.3575H39.5542V48.3575ZM28.3765 48.3575V47.3575H28.3628L28.3491 47.3579L28.3765 48.3575ZM26.5186 47.4882L25.737 48.1121L25.737 48.1121L26.5186 47.4882ZM26.0622 45.4583L27.0363 45.6847L27.0375 45.6793L26.0622 45.4583ZM33.0049 14.8158L32.0307 14.5901L32.0297 14.5948L33.0049 14.8158ZM35.3192 13.0008L35.2919 14.0005L35.3056 14.0008H35.3192V13.0008ZM58.4615 13.0008V14.0008L58.4649 14.0008L58.4615 13.0008ZM59.4612 13.2283L59.8962 12.3279L59.8962 12.3279L59.4612 13.2283ZM60.2666 13.873L59.4843 14.496L59.4852 14.497L60.2666 13.873ZM60.724 14.8206L61.6984 14.5955V14.5955L60.724 14.8206ZM60.7294 15.8765L59.7528 15.6614L59.7524 15.6632L60.7294 15.8765ZM56.7258 34.2149L55.7488 34.0016L55.4839 35.2149H56.7258V34.2149ZM67.7184 34.2149V35.2149L67.7204 35.2149L67.7184 34.2149ZM68.9456 34.5706L68.4103 35.4153H68.4103L68.9456 34.5706ZM69.8012 35.5348L70.718 35.1355L70.7105 35.1183L70.7023 35.1013L69.8012 35.5348ZM69.9861 36.7484L68.9919 36.641V36.641L69.9861 36.7484ZM69.5466 37.892L70.3463 38.4924L70.3512 38.4859L70.3559 38.4794L69.5466 37.892ZM39.4616 77.9629L38.6619 77.3625L38.6442 77.3861L38.6279 77.4107L39.4616 77.9629ZM38.6692 78.7039L38.1758 77.8341L38.1758 77.8341L38.6692 78.7039ZM37.6334 79L37.6144 79.9998L37.6438 80.0004L37.6731 79.9992L37.6334 79ZM50.9402 38.9291L49.9632 38.7159L49.6985 39.9291H50.9402V38.9291ZM55.5687 17.7151L56.5457 17.9282L56.8104 16.7151H55.5687V17.7151ZM37.1705 17.7151V16.7151H36.3719L36.1953 17.494L37.1705 17.7151ZM31.2924 43.6433L30.3172 43.4222L30.0403 44.6433H31.2924V43.6433ZM44.9695 43.6433L45.9582 43.7934L46.1328 42.6433H44.9695V43.6433ZM41.2899 67.8744L40.3012 67.7243L42.0887 68.476L41.2899 67.8744ZM63.0899 38.9291L63.8887 39.5307L65.095 37.9291H63.0899V38.9291ZM37.1258 77.8927C36.8591 77.7781 36.6337 77.5746 36.4883 77.3104L34.7363 78.275C35.0937 78.9242 35.6554 79.4375 36.3359 79.7301L37.1258 77.8927ZM36.4883 77.3104C36.3427 77.046 36.2869 76.7379 36.3316 76.4354L34.353 76.1433C34.2448 76.8763 34.379 77.6261 34.7363 78.275L36.4883 77.3104ZM36.3311 76.4384L40.543 48.5066L38.5654 48.2084L34.3535 76.1402L36.3311 76.4384ZM39.5542 47.3575H28.3765V49.3575H39.5542V47.3575ZM28.3491 47.3579C28.1509 47.3633 27.9535 47.3224 27.772 47.2374L26.9243 49.0489C27.387 49.2654 27.8933 49.3712 28.4039 49.3572L28.3491 47.3579ZM27.772 47.2374C27.5903 47.1524 27.4286 47.0253 27.3001 46.8644L25.737 48.1121C26.0558 48.5115 26.4617 48.8325 26.9243 49.0489L27.772 47.2374ZM27.3001 46.8644C27.1716 46.7034 27.0801 46.5132 27.034 46.308L25.0827 46.7467C25.1949 47.2455 25.4183 47.7127 25.737 48.1121L27.3001 46.8644ZM27.034 46.308C26.9879 46.1029 26.9887 45.8895 27.0363 45.6847L25.0882 45.2319C24.9725 45.7298 24.9706 46.2479 25.0827 46.7467L27.034 46.308ZM27.0375 45.6793L33.9802 15.0368L32.0297 14.5948L25.087 45.2373L27.0375 45.6793ZM33.9791 15.0415C34.0504 14.7339 34.2227 14.4645 34.4625 14.2764L33.2283 12.7026C32.6252 13.1757 32.2038 13.843 32.0307 14.5901L33.9791 15.0415ZM34.4625 14.2764C34.702 14.0886 34.9949 13.9924 35.2919 14.0005L35.3464 12.0012C34.5798 11.9803 33.8318 12.2293 33.2283 12.7026L34.4625 14.2764ZM35.3192 14.0008H58.4615V12.0008H35.3192V14.0008ZM58.4649 14.0008C58.6583 14.0002 58.85 14.0436 59.0261 14.1287L59.8962 12.3279C59.4476 12.1111 58.9561 11.9991 58.458 12.0008L58.4649 14.0008ZM59.0261 14.1287C59.2024 14.2138 59.3592 14.3389 59.4844 14.496L61.0488 13.25C60.7383 12.8601 60.3447 12.5446 59.8962 12.3279L59.0261 14.1287ZM59.4852 14.497C59.6121 14.656 59.703 14.8434 59.7497 15.0457L61.6984 14.5955C61.5848 14.1036 61.3628 13.6431 61.0479 13.2489L59.4852 14.497ZM59.7497 15.0457C59.7964 15.2479 59.7975 15.4586 59.7528 15.6614L61.706 16.0917C61.8146 15.5987 61.812 15.0873 61.6984 14.5955L59.7497 15.0457ZM59.7524 15.6632L55.7488 34.0016L57.7028 34.4282L61.7064 16.0898L59.7524 15.6632ZM56.7258 35.2149H67.7184V33.2149H56.7258V35.2149ZM67.7204 35.2149C67.9629 35.2144 68.2019 35.2832 68.4103 35.4153L69.4809 33.726C68.9529 33.3913 68.3414 33.2136 67.7164 33.2149L67.7204 35.2149ZM68.4103 35.4153C68.619 35.5475 68.7895 35.7385 68.9 35.9684L70.7023 35.1013C70.4312 34.5378 70.0088 34.0605 69.4809 33.726L68.4103 35.4153ZM68.8844 35.9342C68.9806 36.1552 69.018 36.3992 68.9919 36.641L70.9803 36.8558C71.0437 36.2694 70.9534 35.676 70.718 35.1355L68.8844 35.9342ZM68.9919 36.641C68.9658 36.8828 68.8774 37.1116 68.7374 37.3045L70.3559 38.4794C70.7022 38.0024 70.917 37.4421 70.9803 36.8557L68.9919 36.641ZM68.7469 37.2915L38.6619 77.3625L40.2613 78.5633L70.3463 38.4924L68.7469 37.2915ZM38.6279 77.4107C38.5107 77.5877 38.3554 77.7322 38.1758 77.8341L39.1626 79.5737C39.6183 79.3153 40.0059 78.9521 40.2954 78.5151L38.6279 77.4107ZM38.1758 77.8341C37.9962 77.936 37.7968 77.9927 37.5937 78.0008L37.6731 79.9992C38.1965 79.9784 38.7069 79.8323 39.1626 79.5737L38.1758 77.8341ZM37.6524 78.0002C37.4679 77.9967 37.2852 77.9586 37.1133 77.8874L36.3484 79.7354C36.7504 79.9018 37.1796 79.9915 37.6144 79.9998L37.6524 78.0002ZM51.9172 39.1423L56.5457 17.9282L54.5917 17.5019L49.9632 38.7159L51.9172 39.1423ZM55.5687 16.7151H37.1705V18.7151H55.5687V16.7151ZM36.1953 17.494L30.3172 43.4222L32.2677 43.8644L38.1458 17.9362L36.1953 17.494ZM31.2924 44.6433H44.9695V42.6433H31.2924V44.6433ZM43.9808 43.4932L40.3012 67.7243L42.2785 68.0246L45.9582 43.7934L43.9808 43.4932ZM42.0887 68.476L63.8887 39.5307L62.2911 38.3275L40.4911 67.2728L42.0887 68.476ZM63.0899 37.9291H50.9402V39.9291H63.0899V37.9291ZM91 46C91 70.8528 70.8528 91 46 91V93C71.9574 93 93 71.9574 93 46H91ZM46 91C21.1472 91 1 70.8528 1 46H-1C-1 71.9574 20.0426 93 46 93V91ZM1 46C1 21.1472 21.1472 1 46 1V-1C20.0426 -1 -1 20.0426 -1 46H1ZM46 1C70.8528 1 91 21.1472 91 46H93C93 20.0426 71.9574 -1 46 -1V1Z" fill="#EC7979" mask="url(#path-1-inside-1_7258_339)"/>
</svg>
