<?xml version="1.0" standalone="no"?>
<!DOCTYPE svg PUBLIC "-//W3C//DTD SVG 20010904//EN"
 "http://www.w3.org/TR/2001/REC-SVG-20010904/DTD/svg10.dtd">
<svg version="1.0" xmlns="http://www.w3.org/2000/svg"
 width="256.000000pt" height="256.000000pt" viewBox="0 0 256.000000 256.000000"
 preserveAspectRatio="xMidYMid meet">
<metadata>
Created by potrace 1.14, written by Peter Selinger 2001-2017
</metadata>
<g transform="translate(0.000000,256.000000) scale(0.100000,-0.100000)"
fill="#000000" stroke="none">
<path d="M0 1280 l0 -1280 1280 0 1280 0 0 1280 0 1280 -1280 0 -1280 0 0
-1280z m729 8 c68 -205 126 -379 129 -385 3 -10 -14 -13 -66 -13 l-70 0 -33
95 -34 95 -122 0 -121 0 -32 -95 -32 -95 -68 0 -68 0 124 373 c68 204 126 378
129 385 3 8 27 12 72 12 l68 0 124 -372z m357 245 c42 -71 82 -134 88 -140 9
-10 31 20 95 127 l83 140 75 0 75 0 -16 -25 c-9 -14 -64 -102 -122 -196 l-104
-170 111 -182 c61 -100 114 -185 116 -189 2 -5 -29 -8 -69 -8 l-73 0 -80 134
c-44 74 -83 132 -86 130 -4 -2 -41 -62 -84 -134 l-77 -130 -75 0 -75 0 14 23
c16 23 208 337 215 350 2 4 -20 46 -50 95 -30 48 -84 135 -120 195 l-67 107
74 0 75 0 77 -127z m604 -258 l0 -385 -65 0 -65 0 0 385 0 385 65 0 65 0 0
-385z m670 320 l0 -65 -115 0 -115 0 0 -320 0 -320 -60 0 -60 0 0 320 0 320
-110 0 -110 0 0 65 0 65 285 0 285 0 0 -65z"/>
<path d="M487 1351 c-26 -82 -47 -152 -47 -155 0 -3 43 -6 96 -6 73 0 95 3 91
13 -2 6 -23 75 -47 152 -23 77 -43 141 -44 142 -1 2 -23 -64 -49 -146z"/>
</g>
</svg>
